{"glyphs":{"0":{"ha":1704,"x_min":0,"x_max":0,"o":"m 856 -21 b 1560 82 1349 -21 1492 8 b 1656 506 1621 150 1656 285 b 1554 931 1656 725 1619 864 b 851 1035 1483 1003 1350 1035 b 154 931 363 1035 224 1003 b 49 497 86 860 49 719 b 151 82 49 285 85 151 b 856 -21 221 8 361 -21 z m 856 292 b 619 326 692 292 642 303 b 582 499 594 351 582 400 b 621 686 582 607 594 661 b 851 722 644 711 690 722 b 1085 686 1014 722 1061 711 b 1122 499 1110 661 1122 608 b 1086 328 1122 400 1111 353 b 856 292 1063 303 1013 292 z "},"1":{"ha":1042,"x_min":0,"x_max":0,"o":"m 468 -1 b 931 -1 608 -4 796 -4 b 961 31 953 0 961 10 l 961 983 b 931 1015 961 1006 951 1014 b 496 1015 790 1019 642 1019 b 444 1001 478 1015 460 1010 l 18 776 b 8 736 -1 765 -3 754 l 143 521 b 186 508 154 503 168 500 l 403 617 b 442 593 428 629 442 621 l 438 31 b 468 -1 438 8 447 0 z "},"2":{"ha":1569,"x_min":0,"x_max":0,"o":"m 72 0 b 1507 0 419 -6 1151 -3 b 1538 31 1529 0 1538 10 l 1538 256 b 1507 286 1538 278 1528 286 b 624 268 1343 283 904 269 b 596 297 603 268 594 276 b 607 319 597 306 601 313 b 958 358 628 340 669 346 b 1464 457 1307 374 1404 397 b 1532 703 1510 503 1532 583 b 1460 936 1532 813 1506 892 b 794 1035 1390 1004 1264 1035 b 121 926 306 1035 193 1000 b 31 714 81 886 47 806 b 57 683 28 692 36 683 l 535 690 b 576 719 557 690 569 700 b 596 751 583 733 589 743 b 789 779 615 769 640 779 b 985 754 946 778 969 769 b 1000 713 996 743 1000 726 b 985 669 1000 696 996 681 b 701 633 965 650 917 643 b 113 511 267 608 182 582 b 35 249 58 457 35 382 b 39 31 35 171 36 83 b 72 0 40 8 51 0 z "},"3":{"ha":1621,"x_min":0,"x_max":0,"o":"m 793 -19 b 1511 82 1338 -19 1443 15 b 1582 301 1560 132 1582 203 b 1482 510 1583 413 1556 471 b 1419 565 1444 529 1419 540 b 1469 625 1419 588 1442 600 b 1532 771 1515 667 1532 707 b 1474 939 1532 839 1514 899 b 796 1033 1406 1006 1318 1033 b 118 922 288 1033 193 997 b 29 722 81 883 43 799 b 56 692 26 700 35 692 l 521 693 b 558 719 539 693 553 703 b 576 747 563 729 569 739 b 792 774 593 765 615 774 b 974 753 938 774 961 767 b 989 711 985 742 989 726 b 972 667 989 696 986 681 b 842 643 957 651 939 644 l 439 640 b 408 610 417 640 408 631 l 408 422 b 439 392 408 400 418 392 l 860 393 b 1019 369 979 393 1000 389 b 1038 315 1032 357 1038 336 b 1019 267 1038 297 1033 279 b 803 242 1004 250 976 242 b 583 267 622 242 599 251 b 557 310 571 279 564 293 b 519 336 551 326 538 336 l 54 336 b 26 306 32 336 25 326 b 110 94 36 218 71 135 b 793 -19 182 22 293 -19 z "},"4":{"ha":1604,"x_min":0,"x_max":0,"o":"m 906 0 l 1365 0 b 1396 31 1388 0 1396 10 l 1396 144 b 1425 174 1396 165 1404 174 l 1572 174 b 1603 204 1594 174 1603 183 l 1603 479 b 1572 510 1603 501 1593 510 l 1425 510 b 1396 539 1404 510 1396 518 l 1403 983 b 1372 1014 1403 1006 1393 1014 l 883 1014 b 832 1000 865 1014 847 1010 b 26 511 644 889 264 664 b 3 469 11 501 3 488 l 3 204 b 33 174 3 182 13 174 l 846 174 b 875 144 867 174 875 165 l 874 31 b 906 0 875 8 885 0 z m 508 529 l 843 725 b 885 701 868 739 886 728 l 882 539 b 851 510 881 518 872 510 l 514 507 b 508 529 486 507 485 515 z "},"5":{"ha":1528,"x_min":0,"x_max":0,"o":"m 767 -18 b 1436 76 1276 -18 1371 10 b 1511 319 1485 124 1511 206 b 1436 578 1511 435 1486 528 b 900 660 1376 638 1293 660 b 543 608 668 660 636 647 b 501 638 515 597 501 608 l 507 690 b 539 718 508 710 518 718 l 1449 713 b 1478 743 1471 713 1478 722 l 1478 985 b 1447 1015 1478 1007 1468 1015 l 121 1014 b 88 983 99 1014 89 1004 l 42 397 b 69 367 39 375 49 367 l 515 358 b 565 374 533 357 551 364 b 575 382 569 376 572 379 b 757 403 600 396 621 403 b 949 378 904 403 931 394 b 969 308 965 363 969 336 b 950 250 969 279 963 263 b 763 226 936 236 911 226 b 575 247 608 226 588 233 b 560 269 568 253 564 260 b 517 297 551 289 538 297 l 49 296 b 21 265 26 296 19 286 b 100 78 31 190 57 122 b 767 -18 168 10 285 -18 z "},"6":{"ha":1647,"x_min":0,"x_max":0,"o":"m 826 -22 b 1525 81 1326 -22 1453 8 b 1600 324 1569 125 1600 210 b 1529 572 1600 439 1579 522 b 1042 653 1467 633 1369 653 b 636 589 783 653 750 633 b 590 619 608 579 592 590 b 622 740 592 676 600 718 b 819 772 644 763 686 772 b 1011 743 974 771 993 761 b 1019 733 1014 740 1017 738 b 1067 708 1032 715 1046 708 l 1578 708 b 1603 739 1600 710 1607 718 b 1508 935 1583 817 1551 894 b 799 1035 1436 1006 1300 1035 b 161 929 346 1035 229 997 b 51 513 89 858 51 724 b 156 85 51 286 86 156 b 826 -22 228 11 360 -22 z m 829 229 b 617 257 676 229 635 240 b 597 310 604 269 597 286 b 638 375 597 335 608 356 b 843 408 672 399 707 408 b 1032 383 994 408 1015 400 b 1053 315 1047 367 1053 343 b 1032 256 1053 286 1044 268 b 829 229 1017 240 988 229 z "},"7":{"ha":1436,"x_min":0,"x_max":0,"o":"m 290 0 l 858 0 b 896 26 876 0 889 10 b 1393 657 968 214 1161 474 b 1418 706 1411 671 1418 685 l 1421 983 b 1390 1014 1421 1006 1411 1014 l 50 1014 b 19 983 28 1014 19 1004 l 19 703 b 50 672 19 681 29 672 l 742 678 b 749 654 769 679 772 669 b 260 46 544 504 344 249 b 290 0 249 17 260 0 z "},"8":{"ha":1685,"x_min":0,"x_max":0,"o":"m 847 -19 b 1574 75 1401 -19 1504 4 b 1642 288 1624 125 1642 193 b 1533 515 1642 388 1611 460 b 1528 586 1496 539 1496 560 b 1610 771 1586 640 1610 688 b 1550 944 1610 842 1594 903 b 847 1035 1481 1010 1379 1035 b 143 943 321 1035 211 1011 b 81 772 100 901 81 840 b 168 585 81 696 106 643 b 163 511 201 556 197 535 b 43 286 72 446 43 383 b 110 74 43 185 61 122 b 847 -19 179 4 289 -19 z m 846 232 b 608 258 656 232 624 243 b 588 319 593 274 588 293 b 607 388 588 344 590 371 b 842 411 624 403 649 411 b 1079 388 1036 411 1064 403 b 1101 319 1097 369 1101 346 b 1082 258 1101 293 1096 272 b 846 232 1065 242 1032 232 z m 846 629 b 638 650 683 629 653 635 b 617 703 622 664 617 682 b 636 760 617 724 619 744 b 846 783 651 774 676 783 b 1051 760 1010 783 1036 775 b 1071 701 1067 744 1071 724 b 1050 650 1071 681 1065 664 b 846 629 1036 636 1008 629 z "},"9":{"ha":1608,"x_min":0,"x_max":0,"o":"m 788 1039 b 89 936 288 1039 161 1008 b 14 693 44 892 14 807 b 85 444 14 578 35 494 b 572 364 147 383 244 364 b 978 428 831 364 864 383 b 1024 397 1006 438 1022 426 b 992 276 1022 340 1014 299 b 794 244 969 254 928 244 b 603 274 640 246 621 256 b 594 283 600 276 597 279 b 547 308 582 301 568 308 l 36 308 b 11 278 14 307 7 299 b 106 82 31 200 63 122 b 815 -18 178 11 314 -18 b 1453 88 1268 -18 1385 19 b 1563 504 1525 158 1563 293 b 1458 932 1563 731 1528 861 b 788 1039 1386 1006 1254 1039 z m 785 788 b 997 760 938 788 979 776 b 1017 707 1010 747 1017 731 b 976 642 1017 682 1006 661 b 771 608 942 618 907 608 b 582 633 619 608 599 617 b 561 701 567 650 561 674 b 582 761 561 731 569 749 b 785 788 597 776 626 788 z "}," ":{"ha":325,"x_min":0,"x_max":0,"o":""}," ":{"ha":325,"x_min":0,"x_max":0,"o":""},"A":{"ha":1832,"x_min":0,"x_max":0,"o":"m 26 0 l 474 0 b 515 25 493 0 507 8 l 571 131 b 611 156 579 147 593 156 l 1131 156 b 1172 132 1149 156 1163 147 l 1233 25 b 1276 -1 1243 8 1257 0 b 1803 -1 1451 -3 1626 -3 b 1828 42 1833 0 1842 15 b 1249 990 1685 306 1411 761 b 1201 1015 1236 1007 1222 1015 b 626 1015 1076 1017 764 1017 b 579 989 606 1014 592 1007 b 3 42 439 785 167 335 b 26 0 -12 15 -4 0 z m 753 457 l 842 608 b 893 610 857 633 879 633 l 985 457 b 964 419 999 432 992 419 l 774 419 b 753 457 746 419 739 432 z "},"Á":{"ha":1832,"x_min":0,"x_max":0,"o":"m 26 0 l 474 0 b 515 25 493 0 507 8 l 571 131 b 611 156 579 147 593 156 l 1131 156 b 1172 132 1149 156 1163 147 l 1233 25 b 1276 -1 1243 8 1257 0 b 1803 -1 1451 -3 1626 -3 b 1828 42 1833 0 1842 15 b 1249 990 1685 306 1411 761 b 1201 1015 1236 1007 1222 1015 b 626 1015 1076 1017 764 1017 b 579 989 606 1014 592 1007 b 3 42 439 785 167 335 b 26 0 -12 15 -4 0 z m 806 1085 l 939 1085 b 983 1108 957 1085 972 1093 l 1131 1317 b 1110 1356 1147 1342 1140 1356 l 926 1356 b 885 1331 907 1356 893 1347 l 779 1128 b 806 1085 765 1100 775 1085 z m 753 457 l 842 608 b 893 610 857 633 879 633 l 985 457 b 964 419 999 432 992 419 l 774 419 b 753 457 746 419 739 432 z "},"Â":{"ha":1832,"x_min":0,"x_max":0,"o":"m 26 0 l 474 0 b 515 25 493 0 507 8 l 571 131 b 611 156 579 147 593 156 l 1131 156 b 1172 132 1149 156 1163 147 l 1233 25 b 1276 -1 1243 8 1257 0 b 1803 -1 1451 -3 1626 -3 b 1828 42 1833 0 1842 15 b 1249 990 1685 306 1411 761 b 1201 1015 1236 1007 1222 1015 b 626 1015 1076 1017 764 1017 b 579 989 606 1014 592 1007 b 3 42 439 785 167 335 b 26 0 -12 15 -4 0 z m 785 1326 l 628 1122 b 647 1083 610 1097 617 1083 l 790 1083 b 838 1106 808 1083 825 1092 l 911 1193 l 985 1106 b 1031 1083 996 1092 1013 1083 l 1171 1083 b 1192 1122 1201 1083 1210 1099 l 1046 1326 b 1001 1349 1035 1342 1019 1349 l 831 1349 b 785 1326 813 1349 796 1342 z m 753 457 l 842 608 b 893 610 857 633 879 633 l 985 457 b 964 419 999 432 992 419 l 774 419 b 753 457 746 419 739 432 z "},"Ä":{"ha":1832,"x_min":0,"x_max":0,"o":"m 26 0 l 474 0 b 515 25 493 0 507 8 l 571 131 b 611 156 579 147 593 156 l 1131 156 b 1172 132 1149 156 1163 147 l 1233 25 b 1276 -1 1243 8 1257 0 b 1803 -1 1451 -3 1626 -3 b 1828 42 1833 0 1842 15 b 1249 990 1685 306 1411 761 b 1201 1015 1236 1007 1222 1015 b 626 1015 1076 1017 764 1017 b 579 989 606 1014 592 1007 b 3 42 439 785 167 335 b 26 0 -12 15 -4 0 z m 974 1086 l 1171 1086 b 1201 1117 1192 1086 1201 1096 l 1201 1300 b 1171 1331 1201 1322 1192 1331 l 974 1331 b 943 1300 953 1331 943 1321 l 943 1117 b 974 1086 943 1094 953 1086 z m 660 1086 l 854 1086 b 885 1117 876 1086 885 1096 l 885 1300 b 854 1331 885 1322 876 1331 l 660 1331 b 629 1300 638 1331 629 1321 l 629 1117 b 660 1086 629 1094 639 1086 z m 753 457 l 842 608 b 893 610 857 633 879 633 l 985 457 b 964 419 999 432 992 419 l 774 419 b 753 457 746 419 739 432 z "},"À":{"ha":1832,"x_min":0,"x_max":0,"o":"m 26 0 l 474 0 b 515 25 493 0 507 8 l 571 131 b 611 156 579 147 593 156 l 1131 156 b 1172 132 1149 156 1163 147 l 1233 25 b 1276 -1 1243 8 1257 0 b 1803 -1 1451 -3 1626 -3 b 1828 42 1833 0 1842 15 b 1249 990 1685 306 1411 761 b 1201 1015 1236 1007 1222 1015 b 626 1015 1076 1017 764 1017 b 579 989 606 1014 592 1007 b 3 42 439 785 167 335 b 26 0 -12 15 -4 0 z m 1058 1128 l 954 1331 b 913 1356 944 1347 931 1356 l 729 1356 b 708 1317 699 1356 692 1342 l 851 1108 b 896 1085 863 1093 878 1085 l 1032 1085 b 1058 1128 1063 1085 1072 1100 z m 753 457 l 842 608 b 893 610 857 633 879 633 l 985 457 b 964 419 999 432 992 419 l 774 419 b 753 457 746 419 739 432 z "},"Å":{"ha":1832,"x_min":0,"x_max":0,"o":"m 26 0 l 474 0 b 515 25 493 0 507 8 l 571 131 b 611 156 579 147 593 156 l 1131 156 b 1172 132 1149 156 1163 147 l 1233 25 b 1276 -1 1243 8 1257 0 b 1803 -1 1451 -3 1626 -3 b 1828 42 1833 0 1842 15 b 1249 990 1685 306 1411 761 b 1201 1015 1236 1007 1222 1015 b 626 1015 1076 1017 764 1017 b 579 989 606 1014 592 1007 b 3 42 439 785 167 335 b 26 0 -12 15 -4 0 z m 913 1065 b 1126 1263 1032 1065 1126 1149 b 913 1458 1126 1375 1032 1458 b 699 1263 792 1458 699 1375 b 913 1065 699 1149 792 1065 z m 913 1203 b 853 1263 878 1203 853 1229 b 913 1321 853 1296 878 1321 b 971 1263 947 1321 971 1296 b 913 1203 971 1229 947 1203 z m 753 457 l 842 608 b 893 610 857 633 879 633 l 985 457 b 964 419 999 432 992 419 l 774 419 b 753 457 746 419 739 432 z "},"Ã":{"ha":1832,"x_min":0,"x_max":0,"o":"m 26 0 l 474 0 b 515 25 493 0 507 8 l 571 131 b 611 156 579 147 593 156 l 1131 156 b 1172 132 1149 156 1163 147 l 1233 25 b 1276 -1 1243 8 1257 0 b 1803 -1 1451 -3 1626 -3 b 1828 42 1833 0 1842 15 b 1249 990 1685 306 1411 761 b 1201 1015 1236 1007 1222 1015 b 626 1015 1076 1017 764 1017 b 579 989 606 1014 592 1007 b 3 42 439 785 167 335 b 26 0 -12 15 -4 0 z m 1063 1074 b 1181 1114 1111 1074 1149 1086 b 1200 1161 1193 1126 1200 1143 l 1200 1286 b 1165 1301 1200 1317 1188 1322 b 1067 1272 1136 1281 1106 1272 b 935 1301 1021 1272 981 1286 b 779 1336 888 1318 838 1336 b 657 1294 731 1336 690 1322 b 638 1246 644 1282 638 1265 l 638 1124 b 674 1107 638 1093 650 1088 b 772 1136 704 1129 735 1136 b 903 1108 818 1136 858 1124 b 1063 1074 953 1092 1003 1074 z m 753 457 l 842 608 b 893 610 857 633 879 633 l 985 457 b 964 419 999 432 992 419 l 774 419 b 753 457 746 419 739 432 z "},"B":{"ha":1686,"x_min":0,"x_max":0,"o":"m 115 0 l 1147 0 b 1586 81 1454 0 1524 18 b 1644 279 1626 121 1644 185 b 1574 467 1644 363 1622 419 b 1513 538 1542 499 1513 508 b 1557 606 1513 563 1528 575 b 1614 764 1594 646 1614 693 b 1557 935 1614 832 1597 894 b 1133 1014 1494 997 1435 1014 l 115 1014 b 85 983 94 1014 85 1004 b 85 31 75 739 75 307 b 115 0 85 8 94 0 z m 601 290 b 601 369 600 315 600 344 b 632 399 603 390 611 399 l 1004 399 b 1085 379 1046 399 1069 396 b 1104 326 1099 367 1104 346 b 1089 281 1104 308 1100 290 b 1007 261 1075 267 1049 261 l 632 261 b 601 290 611 261 603 271 z m 601 657 b 601 726 600 679 600 706 b 632 756 603 747 611 756 l 992 756 b 1064 739 1028 756 1050 751 b 1078 690 1075 726 1078 710 b 1063 644 1078 671 1074 656 b 990 626 1050 632 1029 626 l 632 628 b 601 657 611 628 601 636 z "},"C":{"ha":1699,"x_min":0,"x_max":0,"o":"m 854 -19 b 1564 93 1363 -19 1485 11 b 1663 408 1613 142 1647 240 b 1618 457 1664 439 1649 457 l 1143 458 b 1111 429 1124 458 1113 449 b 1076 326 1101 367 1094 344 b 856 290 1054 304 1011 290 b 619 326 683 290 642 304 b 581 506 594 351 581 389 b 619 685 581 614 594 660 b 856 721 643 708 682 721 b 1074 686 1008 721 1051 708 b 1111 594 1093 665 1101 636 b 1146 567 1115 576 1126 567 l 1619 568 b 1663 617 1650 568 1665 586 b 1557 922 1644 775 1607 874 b 854 1033 1479 1000 1357 1033 b 158 922 356 1033 233 999 b 47 497 90 856 47 714 b 157 89 47 288 92 156 b 854 -19 229 15 357 -19 z "},"Ç":{"ha":1699,"x_min":0,"x_max":0,"o":"m 47 497 b 157 89 47 288 92 156 b 739 -18 224 21 336 -14 l 661 -178 b 688 -221 647 -206 657 -221 l 864 -221 b 900 -194 882 -221 894 -211 l 960 -19 b 1564 93 1381 -15 1490 17 b 1663 408 1613 142 1647 240 b 1618 457 1664 439 1649 457 l 1143 458 b 1111 429 1124 458 1113 449 b 1076 326 1101 367 1094 344 b 856 290 1054 304 1011 290 b 619 326 683 290 642 304 b 581 506 594 351 581 389 b 619 685 581 614 594 660 b 856 721 643 708 682 721 b 1074 686 1008 721 1051 708 b 1111 594 1093 665 1101 636 b 1146 567 1115 576 1126 567 l 1619 568 b 1663 617 1650 568 1665 586 b 1557 922 1644 775 1607 874 b 854 1033 1479 1000 1357 1033 b 158 922 356 1033 233 999 b 47 497 90 856 47 714 z "},"D":{"ha":1679,"x_min":0,"x_max":0,"o":"m 115 0 l 1017 0 b 1544 96 1369 0 1471 22 b 1632 482 1604 156 1632 269 b 1525 922 1632 718 1596 853 b 1058 1014 1456 990 1369 1014 l 113 1014 b 81 983 92 1014 82 1004 b 85 31 74 725 75 311 b 115 0 85 8 94 0 z m 597 344 b 599 674 596 433 596 581 b 628 703 599 694 608 703 l 933 703 b 1057 675 1000 703 1035 697 b 1096 490 1082 650 1096 596 b 1065 342 1096 397 1083 361 b 949 315 1046 324 1014 315 l 628 315 b 597 344 607 315 599 325 z "},"Ð":{"ha":1679,"x_min":0,"x_max":0,"o":"m 115 0 l 1017 0 b 1544 96 1369 0 1471 22 b 1632 482 1604 156 1632 269 b 1525 922 1632 718 1596 853 b 1058 1014 1456 990 1369 1014 l 113 1014 b 81 983 92 1014 82 1004 b 76 617 78 881 76 751 l -8 617 b -39 586 -31 617 -39 607 l -39 426 b -8 396 -39 404 -29 396 l 78 396 b 85 31 79 265 81 138 b 115 0 85 8 94 0 z m 597 344 l 597 396 l 686 396 b 717 426 707 396 715 406 l 717 586 b 686 617 717 608 707 617 l 597 617 l 599 674 b 628 703 599 694 608 703 l 933 703 b 1057 675 1000 703 1035 697 b 1096 490 1082 650 1096 596 b 1065 342 1096 397 1083 361 b 949 315 1046 324 1014 315 l 628 315 b 597 344 607 315 599 325 z "},"E":{"ha":1483,"x_min":0,"x_max":0,"o":"m 115 0 l 1394 0 b 1425 31 1417 0 1425 10 l 1425 257 b 1394 288 1425 279 1415 288 b 624 283 1243 285 818 283 b 594 313 603 283 594 292 l 594 360 b 624 389 594 381 603 389 l 1382 389 b 1413 419 1403 389 1411 399 l 1411 599 b 1381 629 1411 619 1403 628 l 624 628 b 594 658 603 628 594 638 l 594 708 b 624 738 594 728 603 738 l 1393 729 b 1424 758 1415 728 1424 738 l 1424 983 b 1393 1014 1424 1006 1415 1014 l 115 1014 b 83 983 93 1014 85 1004 b 83 31 75 738 75 299 b 115 0 85 8 94 0 z "},"É":{"ha":1483,"x_min":0,"x_max":0,"o":"m 115 0 l 1394 0 b 1425 31 1417 0 1425 10 l 1425 257 b 1394 288 1425 279 1415 288 b 624 283 1243 285 818 283 b 594 313 603 283 594 292 l 594 360 b 624 389 594 381 603 389 l 1382 389 b 1413 419 1403 389 1411 399 l 1411 599 b 1381 629 1411 619 1403 628 l 624 628 b 594 658 603 628 594 638 l 594 708 b 624 738 594 728 603 738 l 1393 729 b 1424 758 1415 728 1424 738 l 1424 983 b 1393 1014 1424 1006 1415 1014 l 115 1014 b 83 983 93 1014 85 1004 b 83 31 75 738 75 299 b 115 0 85 8 94 0 z m 639 1085 l 772 1085 b 817 1108 790 1085 806 1093 l 964 1317 b 943 1356 981 1342 974 1356 l 760 1356 b 718 1331 740 1356 726 1347 l 613 1128 b 639 1085 599 1100 608 1085 z "},"Ê":{"ha":1483,"x_min":0,"x_max":0,"o":"m 115 0 l 1394 0 b 1425 31 1417 0 1425 10 l 1425 257 b 1394 288 1425 279 1415 288 b 624 283 1243 285 818 283 b 594 313 603 283 594 292 l 594 360 b 624 389 594 381 603 389 l 1382 389 b 1413 419 1403 389 1411 399 l 1411 599 b 1381 629 1411 619 1403 628 l 624 628 b 594 658 603 628 594 638 l 594 708 b 624 738 594 728 603 738 l 1393 729 b 1424 758 1415 728 1424 738 l 1424 983 b 1393 1014 1424 1006 1415 1014 l 115 1014 b 83 983 93 1014 85 1004 b 83 31 75 738 75 299 b 115 0 85 8 94 0 z m 618 1326 l 461 1122 b 481 1083 443 1097 450 1083 l 624 1083 b 671 1106 642 1083 658 1092 l 744 1193 l 818 1106 b 864 1083 829 1092 846 1083 l 1004 1083 b 1025 1122 1035 1083 1043 1099 l 879 1326 b 835 1349 868 1342 853 1349 l 664 1349 b 618 1326 646 1349 629 1342 z "},"Ë":{"ha":1483,"x_min":0,"x_max":0,"o":"m 115 0 l 1394 0 b 1425 31 1417 0 1425 10 l 1425 257 b 1394 288 1425 279 1415 288 b 624 283 1243 285 818 283 b 594 313 603 283 594 292 l 594 360 b 624 389 594 381 603 389 l 1382 389 b 1413 419 1403 389 1411 399 l 1411 599 b 1381 629 1411 619 1403 628 l 624 628 b 594 658 603 628 594 638 l 594 708 b 624 738 594 728 603 738 l 1393 729 b 1424 758 1415 728 1424 738 l 1424 983 b 1393 1014 1424 1006 1415 1014 l 115 1014 b 83 983 93 1014 85 1004 b 83 31 75 738 75 299 b 115 0 85 8 94 0 z m 807 1086 l 1004 1086 b 1035 1117 1025 1086 1035 1096 l 1035 1300 b 1004 1331 1035 1322 1025 1331 l 807 1331 b 776 1300 786 1331 776 1321 l 776 1117 b 807 1086 776 1094 786 1086 z m 493 1086 l 688 1086 b 718 1117 710 1086 718 1096 l 718 1300 b 688 1331 718 1322 710 1331 l 493 1331 b 463 1300 471 1331 463 1321 l 463 1117 b 493 1086 463 1094 472 1086 z "},"È":{"ha":1483,"x_min":0,"x_max":0,"o":"m 115 0 l 1394 0 b 1425 31 1417 0 1425 10 l 1425 257 b 1394 288 1425 279 1415 288 b 624 283 1243 285 818 283 b 594 313 603 283 594 292 l 594 360 b 624 389 594 381 603 389 l 1382 389 b 1413 419 1403 389 1411 399 l 1411 599 b 1381 629 1411 619 1403 628 l 624 628 b 594 658 603 628 594 638 l 594 708 b 624 738 594 728 603 738 l 1393 729 b 1424 758 1415 728 1424 738 l 1424 983 b 1393 1014 1424 1006 1415 1014 l 115 1014 b 83 983 93 1014 85 1004 b 83 31 75 738 75 299 b 115 0 85 8 94 0 z m 890 1128 l 786 1331 b 744 1356 776 1347 763 1356 l 561 1356 b 540 1317 531 1356 524 1342 l 683 1108 b 728 1085 694 1093 710 1085 l 864 1085 b 890 1128 894 1085 904 1100 z "},"F":{"ha":1457,"x_min":0,"x_max":0,"o":"m 115 0 l 572 0 b 604 31 594 0 603 10 b 600 249 604 94 601 186 b 629 278 600 269 608 278 l 1394 276 b 1425 307 1415 276 1425 286 l 1425 539 b 1394 569 1425 561 1415 569 l 629 568 b 599 599 608 568 600 578 l 599 674 b 629 704 600 694 608 703 b 1401 694 926 703 1269 694 b 1432 725 1424 694 1432 704 l 1429 983 b 1399 1014 1429 1006 1421 1014 l 115 1014 b 83 983 94 1014 85 1006 b 85 31 75 760 75 278 b 115 0 85 8 94 0 z "},"G":{"ha":1718,"x_min":0,"x_max":0,"o":"m 765 -21 b 1340 88 1178 -21 1215 1 b 1390 67 1365 103 1383 94 l 1397 29 b 1432 -1 1400 7 1411 -1 l 1621 -1 b 1653 29 1642 -1 1651 8 b 1651 546 1656 143 1657 421 b 1618 576 1650 568 1640 576 l 824 575 b 793 544 803 575 793 567 l 793 400 b 825 369 793 379 803 369 l 1088 369 b 1107 342 1108 369 1114 361 b 1085 315 1100 332 1093 324 b 840 274 1054 290 1011 275 b 618 308 688 274 643 283 b 583 492 594 332 582 381 b 622 700 583 614 596 674 b 858 736 644 722 688 736 b 1083 708 1021 736 1064 728 b 1104 676 1092 700 1099 689 b 1142 649 1110 658 1124 649 l 1619 650 b 1658 697 1649 650 1664 667 b 1563 921 1639 797 1607 878 b 858 1033 1486 996 1371 1033 b 157 921 343 1033 229 994 b 47 496 86 849 47 696 b 157 83 47 294 88 153 b 765 -21 221 18 336 -21 z "},"H":{"ha":1714,"x_min":0,"x_max":0,"o":"m 111 0 l 576 0 b 607 31 597 0 607 10 b 611 293 608 103 608 215 b 642 324 613 314 622 322 l 1075 324 b 1106 293 1096 324 1104 314 b 1104 31 1107 215 1106 110 b 1135 0 1104 8 1114 0 l 1601 0 b 1632 31 1622 0 1632 10 b 1629 983 1639 278 1636 758 b 1597 1014 1628 1006 1618 1014 l 1138 1014 b 1107 983 1117 1014 1107 1004 b 1101 696 1106 892 1107 769 b 1069 667 1100 675 1090 667 l 642 667 b 610 696 621 667 611 675 b 606 983 606 765 607 893 b 574 1014 606 1006 596 1014 l 117 1014 b 85 983 96 1014 86 1004 b 81 31 76 746 75 278 b 111 0 81 8 90 0 z "},"I":{"ha":674,"x_min":0,"x_max":0,"o":"m 114 0 b 561 0 243 -1 429 -1 b 592 31 582 0 592 10 b 590 983 599 275 597 747 b 558 1014 590 1006 581 1014 b 114 1014 432 1015 244 1015 b 83 983 93 1014 83 1004 b 83 31 76 747 76 279 b 114 0 83 8 93 0 z "},"Ĳ":{"ha":2226,"x_min":0,"x_max":0,"o":"m 114 0 b 561 0 243 -1 429 -1 b 592 31 582 0 592 10 b 590 983 599 275 597 747 b 558 1014 590 1006 581 1014 b 114 1014 432 1015 244 1015 b 83 983 93 1014 83 1004 b 83 31 76 747 76 279 b 114 0 83 8 93 0 z m 1435 -24 b 2076 81 1874 -24 2006 7 b 2154 403 2138 142 2154 235 b 2143 983 2154 603 2151 810 b 2111 1014 2143 1004 2133 1014 b 1653 1015 1985 1019 1768 1019 b 1622 983 1631 1014 1622 1004 b 1626 436 1621 800 1626 617 b 1600 331 1626 382 1621 351 b 1433 297 1578 308 1538 297 b 1263 329 1319 297 1283 307 b 1221 433 1242 349 1232 376 b 1185 465 1217 454 1206 464 b 706 465 1065 471 829 471 b 678 433 683 464 675 454 b 790 81 694 264 724 149 b 1435 -24 867 3 1017 -24 z "},"Í":{"ha":674,"x_min":0,"x_max":0,"o":"m 114 0 b 561 0 243 -1 429 -1 b 592 31 582 0 592 10 b 590 983 599 275 597 747 b 558 1014 590 1006 581 1014 b 114 1014 432 1015 244 1015 b 83 983 93 1014 83 1004 b 83 31 76 747 76 279 b 114 0 83 8 93 0 z m 231 1085 l 364 1085 b 408 1108 382 1085 397 1093 l 556 1317 b 535 1356 572 1342 565 1356 l 351 1356 b 310 1331 332 1356 318 1347 l 204 1128 b 231 1085 190 1100 200 1085 z "},"Î":{"ha":674,"x_min":0,"x_max":0,"o":"m 114 0 b 561 0 243 -1 429 -1 b 592 31 582 0 592 10 b 590 983 599 275 597 747 b 558 1014 590 1006 581 1014 b 114 1014 432 1015 244 1015 b 83 983 93 1014 83 1004 b 83 31 76 747 76 279 b 114 0 83 8 93 0 z m 211 1326 l 54 1122 b 74 1083 36 1097 43 1083 l 217 1083 b 264 1106 235 1083 251 1092 l 338 1193 l 411 1106 b 457 1083 422 1092 439 1083 l 597 1083 b 618 1122 628 1083 636 1099 l 472 1326 b 428 1349 461 1342 446 1349 l 257 1349 b 211 1326 239 1349 222 1342 z "},"Ï":{"ha":674,"x_min":0,"x_max":0,"o":"m 114 0 b 561 0 243 -1 429 -1 b 592 31 582 0 592 10 b 590 983 599 275 597 747 b 558 1014 590 1006 581 1014 b 114 1014 432 1015 244 1015 b 83 983 93 1014 83 1004 b 83 31 76 747 76 279 b 114 0 83 8 93 0 z m 399 1086 l 596 1086 b 626 1117 617 1086 626 1096 l 626 1300 b 596 1331 626 1322 617 1331 l 399 1331 b 368 1300 378 1331 368 1321 l 368 1117 b 399 1086 368 1094 378 1086 z m 85 1086 l 279 1086 b 310 1117 301 1086 310 1096 l 310 1300 b 279 1331 310 1322 301 1331 l 85 1331 b 54 1300 63 1331 54 1321 l 54 1117 b 85 1086 54 1094 64 1086 z "},"Ì":{"ha":674,"x_min":0,"x_max":0,"o":"m 114 0 b 561 0 243 -1 429 -1 b 592 31 582 0 592 10 b 590 983 599 275 597 747 b 558 1014 590 1006 581 1014 b 114 1014 432 1015 244 1015 b 83 983 93 1014 83 1004 b 83 31 76 747 76 279 b 114 0 83 8 93 0 z m 483 1128 l 379 1331 b 338 1356 369 1347 356 1356 l 154 1356 b 133 1317 124 1356 117 1342 l 276 1108 b 321 1085 288 1093 303 1085 l 457 1085 b 483 1128 488 1085 497 1100 z "},"J":{"ha":1564,"x_min":0,"x_max":0,"o":"m 772 -24 b 1414 81 1211 -24 1343 7 b 1492 403 1475 142 1492 235 b 1481 983 1492 603 1489 810 b 1449 1014 1481 1004 1471 1014 b 990 1015 1322 1019 1106 1019 b 960 983 968 1014 960 1004 b 964 436 958 800 964 617 b 938 331 964 382 958 351 b 771 297 915 308 875 297 b 600 329 657 297 621 307 b 558 433 579 349 569 376 b 522 465 554 454 543 464 b 43 465 403 471 167 471 b 15 433 21 464 13 454 b 128 81 32 264 61 149 b 772 -24 204 3 354 -24 z "},"K":{"ha":1665,"x_min":0,"x_max":0,"o":"m 113 0 l 572 0 b 604 31 594 0 603 10 b 596 403 604 122 594 288 b 635 422 596 432 613 439 b 1049 19 746 324 950 110 b 1097 0 1063 7 1079 0 l 1669 0 b 1686 36 1700 0 1707 14 b 1182 540 1567 174 1371 364 b 1183 597 1163 558 1163 579 b 1625 982 1350 742 1529 893 b 1613 1014 1647 1001 1643 1014 l 1071 1014 b 1021 997 1053 1014 1035 1008 b 638 668 900 901 731 749 b 597 683 614 649 599 657 b 601 983 597 768 601 888 b 571 1014 601 1006 592 1014 l 113 1014 b 81 983 90 1014 82 1006 b 81 31 71 740 71 275 b 113 0 82 8 92 0 z "},"L":{"ha":1438,"x_min":0,"x_max":0,"o":"m 117 0 l 1390 0 b 1421 31 1413 0 1421 10 l 1421 332 b 1390 363 1421 353 1413 363 b 625 356 1239 360 854 356 b 596 385 604 356 596 364 b 603 983 596 547 600 819 b 574 1014 603 1006 594 1014 l 117 1014 b 85 983 94 1014 86 1004 b 85 31 76 721 76 282 b 117 0 86 8 96 0 z "},"M":{"ha":2069,"x_min":0,"x_max":0,"o":"m 113 0 l 482 0 b 513 31 503 0 513 10 b 511 433 511 147 510 322 b 540 443 513 464 524 468 b 808 24 617 326 707 175 b 853 0 818 8 833 0 l 1126 0 b 1171 24 1146 0 1161 8 b 1436 450 1249 138 1363 328 b 1465 443 1453 475 1464 472 b 1465 31 1467 324 1465 146 b 1496 0 1465 8 1475 0 l 1953 0 b 1986 31 1975 0 1985 10 b 1986 983 1993 218 1993 785 b 1954 1014 1985 1006 1975 1014 l 1442 1014 b 1396 992 1424 1014 1407 1007 b 1093 546 1310 882 1171 653 b 1064 521 1082 531 1081 521 b 1038 546 1051 521 1047 532 b 743 990 963 656 842 839 b 699 1014 733 1006 718 1014 l 115 1014 b 83 983 94 1014 85 1004 b 82 31 76 761 76 260 b 113 0 82 8 92 0 z "},"N":{"ha":1749,"x_min":0,"x_max":0,"o":"m 115 -1 b 529 -1 218 -3 428 -3 b 560 31 551 0 560 10 b 553 401 560 142 553 297 b 588 418 554 429 568 435 b 1085 17 701 318 935 128 b 1136 -1 1100 6 1117 -1 b 1632 -1 1268 -6 1511 -6 b 1664 31 1653 0 1663 10 b 1665 983 1674 247 1671 751 b 1635 1015 1665 1006 1656 1014 b 1214 1015 1515 1018 1315 1018 b 1182 983 1192 1014 1183 1004 b 1188 617 1182 869 1188 725 b 1153 599 1188 589 1172 583 b 674 997 1049 686 817 888 b 624 1015 658 1008 642 1014 b 118 1014 492 1018 275 1017 b 86 983 96 1014 88 1004 b 85 31 76 743 76 274 b 115 -1 85 8 94 0 z "},"Ñ":{"ha":1749,"x_min":0,"x_max":0,"o":"m 115 -1 b 529 -1 218 -3 428 -3 b 560 31 551 0 560 10 b 553 401 560 142 553 297 b 588 418 554 429 568 435 b 1085 17 701 318 935 128 b 1136 -1 1100 6 1117 -1 b 1632 -1 1268 -6 1511 -6 b 1664 31 1653 0 1663 10 b 1665 983 1674 247 1671 751 b 1635 1015 1665 1006 1656 1014 b 1214 1015 1515 1018 1315 1018 b 1182 983 1192 1014 1183 1004 b 1188 617 1182 869 1188 725 b 1153 599 1188 589 1172 583 b 674 997 1049 686 817 888 b 624 1015 658 1008 642 1014 b 118 1014 492 1018 275 1017 b 86 983 96 1014 88 1004 b 85 31 76 743 76 274 b 115 -1 85 8 94 0 z m 1033 1074 b 1151 1114 1082 1074 1119 1086 b 1171 1161 1164 1126 1171 1143 l 1171 1286 b 1136 1301 1171 1317 1158 1322 b 1038 1272 1107 1281 1076 1272 b 906 1301 992 1272 951 1286 b 750 1336 858 1318 808 1336 b 628 1294 701 1336 661 1322 b 608 1246 615 1282 608 1265 l 608 1124 b 644 1107 608 1093 621 1088 b 743 1136 675 1129 706 1136 b 874 1108 789 1136 829 1124 b 1033 1074 924 1092 974 1074 z "},"O":{"ha":1704,"x_min":0,"x_max":0,"o":"m 856 -21 b 1560 82 1349 -21 1492 8 b 1656 506 1621 150 1656 285 b 1554 931 1656 725 1619 864 b 851 1035 1483 1003 1350 1035 b 154 931 363 1035 224 1003 b 49 497 86 860 49 719 b 151 82 49 285 85 151 b 856 -21 221 8 361 -21 z m 856 292 b 619 326 692 292 642 303 b 582 499 594 351 582 400 b 621 686 582 607 594 661 b 851 722 644 711 690 722 b 1085 686 1014 722 1061 711 b 1122 499 1110 661 1122 608 b 1086 328 1122 400 1111 353 b 856 292 1063 303 1013 292 z "},"Ó":{"ha":1704,"x_min":0,"x_max":0,"o":"m 856 -21 b 1560 82 1349 -21 1492 8 b 1656 506 1621 150 1656 285 b 1554 931 1656 725 1619 864 b 851 1035 1483 1003 1350 1035 b 154 931 363 1035 224 1003 b 49 497 86 860 49 719 b 151 82 49 285 85 151 b 856 -21 221 8 361 -21 z m 856 292 b 619 326 692 292 642 303 b 582 499 594 351 582 400 b 621 686 582 607 594 661 b 851 722 644 711 690 722 b 1085 686 1014 722 1061 711 b 1122 499 1110 661 1122 608 b 1086 328 1122 400 1111 353 b 856 292 1063 303 1013 292 z m 746 1085 l 879 1085 b 924 1108 897 1085 913 1093 l 1071 1317 b 1050 1356 1088 1342 1081 1356 l 867 1356 b 825 1331 847 1356 833 1347 l 719 1128 b 746 1085 706 1100 715 1085 z "},"Ô":{"ha":1704,"x_min":0,"x_max":0,"o":"m 856 -21 b 1560 82 1349 -21 1492 8 b 1656 506 1621 150 1656 285 b 1554 931 1656 725 1619 864 b 851 1035 1483 1003 1350 1035 b 154 931 363 1035 224 1003 b 49 497 86 860 49 719 b 151 82 49 285 85 151 b 856 -21 221 8 361 -21 z m 856 292 b 619 326 692 292 642 303 b 582 499 594 351 582 400 b 621 686 582 607 594 661 b 851 722 644 711 690 722 b 1085 686 1014 722 1061 711 b 1122 499 1110 661 1122 608 b 1086 328 1122 400 1111 353 b 856 292 1063 303 1013 292 z m 726 1326 l 569 1122 b 589 1083 551 1097 558 1083 l 732 1083 b 779 1106 750 1083 767 1092 l 853 1193 l 926 1106 b 972 1083 938 1092 954 1083 l 1113 1083 b 1133 1122 1143 1083 1151 1099 l 988 1326 b 943 1349 976 1342 961 1349 l 772 1349 b 726 1326 754 1349 738 1342 z "},"Ö":{"ha":1704,"x_min":0,"x_max":0,"o":"m 856 -21 b 1560 82 1349 -21 1492 8 b 1656 506 1621 150 1656 285 b 1554 931 1656 725 1619 864 b 851 1035 1483 1003 1350 1035 b 154 931 363 1035 224 1003 b 49 497 86 860 49 719 b 151 82 49 285 85 151 b 856 -21 221 8 361 -21 z m 856 292 b 619 326 692 292 642 303 b 582 499 594 351 582 400 b 621 686 582 607 594 661 b 851 722 644 711 690 722 b 1085 686 1014 722 1061 711 b 1122 499 1110 661 1122 608 b 1086 328 1122 400 1111 353 b 856 292 1063 303 1013 292 z m 914 1086 l 1111 1086 b 1142 1117 1132 1086 1142 1096 l 1142 1300 b 1111 1331 1142 1322 1132 1331 l 914 1331 b 883 1300 893 1331 883 1321 l 883 1117 b 914 1086 883 1094 893 1086 z m 600 1086 l 794 1086 b 825 1117 817 1086 825 1096 l 825 1300 b 794 1331 825 1322 817 1331 l 600 1331 b 569 1300 578 1331 569 1321 l 569 1117 b 600 1086 569 1094 579 1086 z "},"Ò":{"ha":1704,"x_min":0,"x_max":0,"o":"m 856 -21 b 1560 82 1349 -21 1492 8 b 1656 506 1621 150 1656 285 b 1554 931 1656 725 1619 864 b 851 1035 1483 1003 1350 1035 b 154 931 363 1035 224 1003 b 49 497 86 860 49 719 b 151 82 49 285 85 151 b 856 -21 221 8 361 -21 z m 856 292 b 619 326 692 292 642 303 b 582 499 594 351 582 400 b 621 686 582 607 594 661 b 851 722 644 711 690 722 b 1085 686 1014 722 1061 711 b 1122 499 1110 661 1122 608 b 1086 328 1122 400 1111 353 b 856 292 1063 303 1013 292 z m 999 1128 l 894 1331 b 853 1356 885 1347 871 1356 l 669 1356 b 649 1317 639 1356 632 1342 l 792 1108 b 836 1085 803 1093 818 1085 l 972 1085 b 999 1128 1003 1085 1013 1100 z "},"Ø":{"ha":1704,"x_min":0,"x_max":0,"o":"m 856 -21 b 1560 82 1349 -21 1492 8 b 1656 506 1621 150 1656 285 b 1554 931 1656 725 1619 864 b 1240 1024 1507 979 1432 1008 l 1289 1107 b 1265 1149 1304 1133 1296 1149 l 1168 1149 b 1126 1125 1150 1149 1135 1140 l 1072 1032 l 851 1035 b 154 931 363 1035 224 1003 b 49 497 86 860 49 719 b 151 82 49 285 85 151 b 460 -10 197 33 274 4 l 408 -99 b 432 -140 393 -125 401 -140 l 532 -140 b 574 -115 550 -140 565 -132 l 631 -18 z m 856 292 l 813 292 l 1054 706 b 1085 686 1068 700 1078 694 b 1122 499 1110 661 1122 608 b 1086 328 1122 400 1111 353 b 856 292 1063 303 1013 292 z m 582 499 b 621 686 582 607 594 661 b 851 722 644 711 690 722 l 890 722 l 647 310 b 619 326 635 314 626 319 b 582 499 594 351 582 400 z "},"Õ":{"ha":1704,"x_min":0,"x_max":0,"o":"m 856 -21 b 1560 82 1349 -21 1492 8 b 1656 506 1621 150 1656 285 b 1554 931 1656 725 1619 864 b 851 1035 1483 1003 1350 1035 b 154 931 363 1035 224 1003 b 49 497 86 860 49 719 b 151 82 49 285 85 151 b 856 -21 221 8 361 -21 z m 856 292 b 619 326 692 292 642 303 b 582 499 594 351 582 400 b 621 686 582 607 594 661 b 851 722 644 711 690 722 b 1085 686 1014 722 1061 711 b 1122 499 1110 661 1122 608 b 1086 328 1122 400 1111 353 b 856 292 1063 303 1013 292 z m 1003 1074 b 1121 1114 1051 1074 1089 1086 b 1140 1161 1133 1126 1140 1143 l 1140 1286 b 1106 1301 1140 1317 1128 1322 b 1007 1272 1076 1281 1046 1272 b 875 1301 961 1272 921 1286 b 719 1336 828 1318 778 1336 b 597 1294 671 1336 631 1322 b 578 1246 585 1282 578 1265 l 578 1124 b 614 1107 578 1093 590 1088 b 713 1136 644 1129 675 1136 b 843 1108 758 1136 799 1124 b 1003 1074 893 1092 943 1074 z "},"Œ":{"ha":2538,"x_min":0,"x_max":0,"o":"m 856 -21 b 1347 0 1088 -21 1242 -14 l 2447 0 b 2478 31 2469 0 2478 10 l 2478 257 b 2447 288 2478 279 2468 288 b 1676 283 2296 285 1871 283 b 1647 313 1656 283 1647 292 l 1647 336 l 1651 378 b 1676 389 1656 386 1664 389 l 2435 389 b 2465 419 2456 389 2464 399 l 2464 599 b 2433 629 2464 619 2456 628 l 1676 628 b 1650 642 1663 628 1654 632 l 1647 671 l 1647 708 b 1676 738 1647 728 1656 738 l 2446 729 b 2476 758 2468 728 2476 738 l 2476 983 b 2446 1014 2476 1006 2468 1014 l 1335 1014 b 851 1035 1231 1028 1079 1035 b 154 931 363 1035 224 1003 b 49 497 86 860 49 719 b 151 82 49 285 85 151 b 856 -21 221 8 361 -21 z m 856 292 b 619 326 692 292 642 303 b 582 499 594 351 582 400 b 621 686 582 607 594 661 b 851 722 644 711 690 722 b 1085 686 1014 722 1061 711 b 1122 499 1110 661 1122 608 b 1086 328 1122 400 1111 353 b 856 292 1063 303 1013 292 z "},"P":{"ha":1592,"x_min":0,"x_max":0,"o":"m 114 0 l 567 0 b 597 31 588 0 596 10 l 594 210 b 624 239 594 231 604 239 l 1046 239 b 1475 332 1306 239 1406 263 b 1560 629 1529 385 1560 488 b 1474 928 1558 772 1528 875 b 1026 1014 1407 993 1319 1014 l 114 1014 b 83 983 93 1014 83 1004 b 83 31 75 729 75 265 b 114 0 83 8 93 0 z m 589 564 b 589 694 588 604 589 653 b 619 724 590 714 600 724 l 917 724 b 1010 703 972 724 994 718 b 1032 622 1026 688 1032 660 b 1011 554 1032 588 1025 567 b 917 535 996 539 967 535 l 618 535 b 589 564 597 535 589 543 z "},"Q":{"ha":1683,"x_min":0,"x_max":0,"o":"m 1075 -339 b 1510 -332 1269 -340 1428 -337 b 1540 -299 1531 -331 1540 -319 l 1542 -97 b 1511 -67 1542 -76 1533 -67 b 1174 -71 1429 -67 1281 -71 b 1104 -28 1118 -71 1104 -62 l 1104 -3 b 1560 94 1401 7 1504 36 b 1656 507 1621 161 1656 292 b 1554 922 1656 722 1619 857 b 851 1024 1483 993 1350 1024 b 154 922 363 1024 224 993 b 49 500 86 853 49 717 b 151 94 49 292 85 163 b 593 -1 207 38 307 8 l 593 -40 b 1075 -339 594 -294 689 -339 z m 856 299 b 619 333 692 299 642 310 b 582 501 594 357 582 404 b 621 683 582 607 594 660 b 851 719 644 708 690 719 b 1085 683 1014 719 1061 708 b 1122 501 1110 660 1122 608 b 1086 335 1122 404 1111 358 b 856 299 1063 310 1013 299 z "},"R":{"ha":1669,"x_min":0,"x_max":0,"o":"m 114 0 l 574 0 b 606 31 596 0 604 10 b 604 189 606 86 603 138 b 635 218 604 208 614 218 l 964 218 b 1053 194 1015 218 1036 211 b 1075 124 1069 178 1075 150 l 1075 31 b 1106 0 1075 8 1083 0 l 1567 0 b 1597 31 1588 0 1597 10 l 1597 167 b 1536 333 1597 244 1578 296 b 1490 393 1510 358 1490 367 b 1533 456 1490 417 1511 432 b 1613 675 1583 506 1613 560 b 1540 932 1613 806 1588 883 b 1108 1014 1478 994 1404 1014 l 114 1014 b 83 983 93 1014 83 1004 b 83 31 76 744 76 263 b 114 0 83 8 93 0 z m 600 543 l 601 690 b 632 719 603 711 611 719 l 950 719 b 1056 696 1014 719 1039 714 b 1078 615 1072 679 1078 651 b 1054 538 1078 576 1069 553 b 957 514 1039 522 1013 514 l 631 514 b 600 543 610 514 601 524 z "},"S":{"ha":1571,"x_min":0,"x_max":0,"o":"m 804 -21 b 1463 79 1278 -21 1396 11 b 1533 317 1507 124 1533 197 b 1464 574 1533 439 1515 521 b 947 675 1403 636 1333 657 b 597 708 653 686 617 689 b 582 747 586 719 582 732 b 597 783 582 761 586 774 b 807 806 614 799 643 806 b 993 779 950 806 979 794 b 1011 751 1001 772 1007 763 b 1053 722 1019 731 1032 724 l 1506 722 b 1532 753 1528 722 1535 732 b 1454 939 1518 838 1493 900 b 788 1033 1392 1001 1283 1033 b 121 938 293 1033 186 1003 b 49 707 74 890 49 808 b 108 476 49 599 65 522 b 597 368 167 414 251 386 b 983 325 928 350 963 346 b 1000 275 996 313 1000 294 b 986 231 1000 257 997 242 b 779 208 972 217 940 208 b 601 235 647 208 617 219 b 576 282 590 246 582 261 b 538 313 569 303 558 311 l 64 314 b 38 283 42 314 35 304 b 117 79 51 185 75 121 b 804 -21 188 8 313 -21 z "},"ẞ":{"ha":3146,"x_min":0,"x_max":0,"o":"m 804 -21 b 1463 79 1278 -21 1396 11 b 1533 317 1507 124 1533 197 b 1464 574 1533 439 1515 521 b 947 675 1403 636 1333 657 b 597 708 653 686 617 689 b 582 747 586 719 582 732 b 597 783 582 761 586 774 b 807 806 614 799 643 806 b 993 779 950 806 979 794 b 1011 751 1001 772 1007 763 b 1053 722 1019 731 1032 724 l 1506 722 b 1532 753 1528 722 1535 732 b 1454 939 1518 838 1493 900 b 788 1033 1392 1001 1283 1033 b 121 938 293 1033 186 1003 b 49 707 74 890 49 808 b 108 476 49 599 65 522 b 597 368 167 414 251 386 b 983 325 928 350 963 346 b 1000 275 996 313 1000 294 b 986 231 1000 257 997 242 b 779 208 972 217 940 208 b 601 235 647 208 617 219 b 576 282 590 246 582 261 b 538 313 569 303 558 311 l 64 314 b 38 283 42 314 35 304 b 117 79 51 185 75 121 b 804 -21 188 8 313 -21 z m 2381 -21 b 3039 79 2854 -21 2972 11 b 3110 317 3083 124 3110 197 b 3040 574 3110 439 3092 521 b 2524 675 2979 636 2910 657 b 2174 708 2229 686 2193 689 b 2158 747 2163 719 2158 732 b 2174 783 2158 761 2163 774 b 2383 806 2190 799 2219 806 b 2569 779 2526 806 2556 794 b 2588 751 2578 772 2583 763 b 2629 722 2596 731 2608 724 l 3082 722 b 3108 753 3104 722 3111 732 b 3031 939 3094 838 3069 900 b 2364 1033 2968 1001 2860 1033 b 1697 938 1869 1033 1763 1003 b 1625 707 1650 890 1625 808 b 1685 476 1625 599 1642 522 b 2174 368 1743 414 1828 386 b 2560 325 2504 350 2539 346 b 2576 275 2572 313 2576 294 b 2563 231 2576 257 2574 242 b 2356 208 2549 217 2517 208 b 2178 235 2224 208 2193 219 b 2153 282 2167 246 2158 261 b 2114 313 2146 303 2135 311 l 1640 314 b 1614 283 1618 314 1611 304 b 1693 79 1628 185 1651 121 b 2381 -21 1764 8 1889 -21 z "},"T":{"ha":1597,"x_min":0,"x_max":0,"o":"m 568 0 b 1031 0 710 -3 876 -4 b 1061 31 1051 0 1061 10 b 1058 664 1063 222 1060 474 b 1088 692 1058 685 1068 693 l 1540 685 b 1571 715 1563 685 1571 694 b 1571 983 1572 796 1572 904 b 1540 1014 1571 1004 1563 1014 b 42 1014 1219 1018 399 1017 b 11 983 19 1014 11 1004 b 11 717 10 900 10 794 b 42 686 11 696 21 686 l 514 693 b 543 664 535 693 543 683 b 538 31 540 479 538 218 b 568 0 538 10 547 0 z "},"U":{"ha":1622,"x_min":0,"x_max":0,"o":"m 817 -22 b 1471 79 1256 -22 1396 4 b 1550 393 1531 139 1550 218 b 1542 983 1550 603 1547 829 b 1511 1015 1542 1006 1532 1014 b 1046 1015 1374 1018 1176 1018 b 1015 983 1024 1014 1015 1004 l 1018 463 b 993 351 1018 404 1015 372 b 817 318 972 331 932 318 b 631 351 694 318 651 331 b 608 460 610 374 608 401 b 615 983 608 631 615 832 b 585 1015 615 1006 606 1014 b 115 1015 456 1018 250 1018 b 83 983 94 1014 85 1004 b 72 413 75 840 72 621 b 154 85 72 242 89 151 b 817 -22 231 8 372 -22 z "},"Ú":{"ha":1622,"x_min":0,"x_max":0,"o":"m 817 -22 b 1471 79 1256 -22 1396 4 b 1550 393 1531 139 1550 218 b 1542 983 1550 603 1547 829 b 1511 1015 1542 1006 1532 1014 b 1046 1015 1374 1018 1176 1018 b 1015 983 1024 1014 1015 1004 l 1018 463 b 993 351 1018 404 1015 372 b 817 318 972 331 932 318 b 631 351 694 318 651 331 b 608 460 610 374 608 401 b 615 983 608 631 615 832 b 585 1015 615 1006 606 1014 b 115 1015 456 1018 250 1018 b 83 983 94 1014 85 1004 b 72 413 75 840 72 621 b 154 85 72 242 89 151 b 817 -22 231 8 372 -22 z m 704 1085 l 838 1085 b 882 1108 856 1085 871 1093 l 1029 1317 b 1008 1356 1046 1342 1039 1356 l 825 1356 b 783 1331 806 1356 792 1347 l 678 1128 b 704 1085 664 1100 674 1085 z "},"Û":{"ha":1622,"x_min":0,"x_max":0,"o":"m 817 -22 b 1471 79 1256 -22 1396 4 b 1550 393 1531 139 1550 218 b 1542 983 1550 603 1547 829 b 1511 1015 1542 1006 1532 1014 b 1046 1015 1374 1018 1176 1018 b 1015 983 1024 1014 1015 1004 l 1018 463 b 993 351 1018 404 1015 372 b 817 318 972 331 932 318 b 631 351 694 318 651 331 b 608 460 610 374 608 401 b 615 983 608 631 615 832 b 585 1015 615 1006 606 1014 b 115 1015 456 1018 250 1018 b 83 983 94 1014 85 1004 b 72 413 75 840 72 621 b 154 85 72 242 89 151 b 817 -22 231 8 372 -22 z m 685 1326 l 528 1122 b 547 1083 510 1097 517 1083 l 690 1083 b 738 1106 708 1083 725 1092 l 811 1193 l 885 1106 b 931 1083 896 1092 913 1083 l 1071 1083 b 1092 1122 1101 1083 1110 1099 l 946 1326 b 901 1349 935 1342 919 1349 l 731 1349 b 685 1326 713 1349 696 1342 z "},"Ü":{"ha":1622,"x_min":0,"x_max":0,"o":"m 817 -22 b 1471 79 1256 -22 1396 4 b 1550 393 1531 139 1550 218 b 1542 983 1550 603 1547 829 b 1511 1015 1542 1006 1532 1014 b 1046 1015 1374 1018 1176 1018 b 1015 983 1024 1014 1015 1004 l 1018 463 b 993 351 1018 404 1015 372 b 817 318 972 331 932 318 b 631 351 694 318 651 331 b 608 460 610 374 608 401 b 615 983 608 631 615 832 b 585 1015 615 1006 606 1014 b 115 1015 456 1018 250 1018 b 83 983 94 1014 85 1004 b 72 413 75 840 72 621 b 154 85 72 242 89 151 b 817 -22 231 8 372 -22 z m 872 1086 l 1069 1086 b 1100 1117 1090 1086 1100 1096 l 1100 1300 b 1069 1331 1100 1322 1090 1331 l 872 1331 b 842 1300 851 1331 842 1321 l 842 1117 b 872 1086 842 1094 851 1086 z m 558 1086 l 753 1086 b 783 1117 775 1086 783 1096 l 783 1300 b 753 1331 783 1322 775 1331 l 558 1331 b 528 1300 536 1331 528 1321 l 528 1117 b 558 1086 528 1094 538 1086 z "},"Ù":{"ha":1622,"x_min":0,"x_max":0,"o":"m 817 -22 b 1471 79 1256 -22 1396 4 b 1550 393 1531 139 1550 218 b 1542 983 1550 603 1547 829 b 1511 1015 1542 1006 1532 1014 b 1046 1015 1374 1018 1176 1018 b 1015 983 1024 1014 1015 1004 l 1018 463 b 993 351 1018 404 1015 372 b 817 318 972 331 932 318 b 631 351 694 318 651 331 b 608 460 610 374 608 401 b 615 983 608 631 615 832 b 585 1015 615 1006 606 1014 b 115 1015 456 1018 250 1018 b 83 983 94 1014 85 1004 b 72 413 75 840 72 621 b 154 85 72 242 89 151 b 817 -22 231 8 372 -22 z m 957 1128 l 853 1331 b 811 1356 843 1347 829 1356 l 628 1356 b 607 1317 597 1356 590 1342 l 750 1108 b 794 1085 761 1093 776 1085 l 931 1085 b 957 1128 961 1085 971 1100 z "},"V":{"ha":1792,"x_min":0,"x_max":0,"o":"m 613 -1 b 1218 -1 801 -6 1035 -4 b 1261 25 1238 0 1251 8 b 1781 971 1407 288 1617 665 b 1756 1015 1794 999 1786 1014 b 1261 1015 1604 1019 1385 1019 b 1219 989 1243 1014 1229 1006 b 949 494 1121 804 1017 606 b 924 471 940 478 936 471 b 899 494 911 471 907 478 b 625 989 828 610 722 810 b 583 1015 615 1006 601 1014 b 36 1015 422 1019 192 1021 b 13 972 6 1014 -3 999 b 569 24 174 692 403 296 b 613 -1 579 8 594 -1 z "},"W":{"ha":2561,"x_min":0,"x_max":0,"o":"m 468 -1 b 967 -1 608 -4 828 -4 b 1008 25 986 0 1000 8 b 1217 440 1064 129 1158 322 b 1264 443 1231 465 1250 467 b 1504 24 1326 332 1425 146 b 1547 0 1514 8 1529 0 b 2126 0 1710 -4 1951 -3 b 2167 26 2146 0 2160 8 b 2563 968 2254 217 2469 710 b 2529 1015 2572 997 2560 1014 b 2100 1015 2400 1017 2215 1017 b 2063 988 2082 1014 2069 1004 b 1872 565 2024 878 1926 672 b 1826 563 1858 539 1839 539 l 1597 989 b 1556 1014 1589 1006 1575 1014 b 1100 1015 1436 1018 1224 1018 b 1060 989 1082 1014 1068 1006 b 849 563 1008 883 906 675 b 803 560 835 536 817 536 b 604 988 746 668 653 876 b 564 1014 597 1006 583 1014 b 40 1015 411 1017 194 1018 b 8 969 10 1015 -3 999 b 426 25 93 739 301 260 b 468 -1 435 8 450 0 z "},"Ẃ":{"ha":2561,"x_min":0,"x_max":0,"o":"m 468 -1 b 967 -1 608 -4 828 -4 b 1008 25 986 0 1000 8 b 1217 440 1064 129 1158 322 b 1264 443 1231 465 1250 467 b 1504 24 1326 332 1425 146 b 1547 0 1514 8 1529 0 b 2126 0 1710 -4 1951 -3 b 2167 26 2146 0 2160 8 b 2563 968 2254 217 2469 710 b 2529 1015 2572 997 2560 1014 b 2100 1015 2400 1017 2215 1017 b 2063 988 2082 1014 2069 1004 b 1872 565 2024 878 1926 672 b 1826 563 1858 539 1839 539 l 1597 989 b 1556 1014 1589 1006 1575 1014 b 1100 1015 1436 1018 1224 1018 b 1060 989 1082 1014 1068 1006 b 849 563 1008 883 906 675 b 803 560 835 536 817 536 b 604 988 746 668 653 876 b 564 1014 597 1006 583 1014 b 40 1015 411 1017 194 1018 b 8 969 10 1015 -3 999 b 426 25 93 739 301 260 b 468 -1 435 8 450 0 z m 1186 1085 l 1319 1085 b 1364 1108 1338 1085 1353 1093 l 1511 1317 b 1490 1356 1528 1342 1521 1356 l 1307 1356 b 1265 1331 1288 1356 1274 1347 l 1160 1128 b 1186 1085 1146 1100 1156 1085 z "},"Ŵ":{"ha":2561,"x_min":0,"x_max":0,"o":"m 468 -1 b 967 -1 608 -4 828 -4 b 1008 25 986 0 1000 8 b 1217 440 1064 129 1158 322 b 1264 443 1231 465 1250 467 b 1504 24 1326 332 1425 146 b 1547 0 1514 8 1529 0 b 2126 0 1710 -4 1951 -3 b 2167 26 2146 0 2160 8 b 2563 968 2254 217 2469 710 b 2529 1015 2572 997 2560 1014 b 2100 1015 2400 1017 2215 1017 b 2063 988 2082 1014 2069 1004 b 1872 565 2024 878 1926 672 b 1826 563 1858 539 1839 539 l 1597 989 b 1556 1014 1589 1006 1575 1014 b 1100 1015 1436 1018 1224 1018 b 1060 989 1082 1014 1068 1006 b 849 563 1008 883 906 675 b 803 560 835 536 817 536 b 604 988 746 668 653 876 b 564 1014 597 1006 583 1014 b 40 1015 411 1017 194 1018 b 8 969 10 1015 -3 999 b 426 25 93 739 301 260 b 468 -1 435 8 450 0 z m 1167 1326 l 1010 1122 b 1029 1083 992 1097 999 1083 l 1172 1083 b 1219 1106 1190 1083 1207 1092 l 1293 1193 l 1367 1106 b 1413 1083 1378 1092 1394 1083 l 1553 1083 b 1574 1122 1583 1083 1592 1099 l 1428 1326 b 1383 1349 1417 1342 1401 1349 l 1213 1349 b 1167 1326 1194 1349 1178 1342 z "},"Ẅ":{"ha":2561,"x_min":0,"x_max":0,"o":"m 468 -1 b 967 -1 608 -4 828 -4 b 1008 25 986 0 1000 8 b 1217 440 1064 129 1158 322 b 1264 443 1231 465 1250 467 b 1504 24 1326 332 1425 146 b 1547 0 1514 8 1529 0 b 2126 0 1710 -4 1951 -3 b 2167 26 2146 0 2160 8 b 2563 968 2254 217 2469 710 b 2529 1015 2572 997 2560 1014 b 2100 1015 2400 1017 2215 1017 b 2063 988 2082 1014 2069 1004 b 1872 565 2024 878 1926 672 b 1826 563 1858 539 1839 539 l 1597 989 b 1556 1014 1589 1006 1575 1014 b 1100 1015 1436 1018 1224 1018 b 1060 989 1082 1014 1068 1006 b 849 563 1008 883 906 675 b 803 560 835 536 817 536 b 604 988 746 668 653 876 b 564 1014 597 1006 583 1014 b 40 1015 411 1017 194 1018 b 8 969 10 1015 -3 999 b 426 25 93 739 301 260 b 468 -1 435 8 450 0 z m 1354 1086 l 1551 1086 b 1582 1117 1572 1086 1582 1096 l 1582 1300 b 1551 1331 1582 1322 1572 1331 l 1354 1331 b 1324 1300 1333 1331 1324 1321 l 1324 1117 b 1354 1086 1324 1094 1333 1086 z m 1040 1086 l 1235 1086 b 1265 1117 1257 1086 1265 1096 l 1265 1300 b 1235 1331 1265 1322 1257 1331 l 1040 1331 b 1010 1300 1018 1331 1010 1321 l 1010 1117 b 1040 1086 1010 1094 1019 1086 z "},"Ẁ":{"ha":2561,"x_min":0,"x_max":0,"o":"m 468 -1 b 967 -1 608 -4 828 -4 b 1008 25 986 0 1000 8 b 1217 440 1064 129 1158 322 b 1264 443 1231 465 1250 467 b 1504 24 1326 332 1425 146 b 1547 0 1514 8 1529 0 b 2126 0 1710 -4 1951 -3 b 2167 26 2146 0 2160 8 b 2563 968 2254 217 2469 710 b 2529 1015 2572 997 2560 1014 b 2100 1015 2400 1017 2215 1017 b 2063 988 2082 1014 2069 1004 b 1872 565 2024 878 1926 672 b 1826 563 1858 539 1839 539 l 1597 989 b 1556 1014 1589 1006 1575 1014 b 1100 1015 1436 1018 1224 1018 b 1060 989 1082 1014 1068 1006 b 849 563 1008 883 906 675 b 803 560 835 536 817 536 b 604 988 746 668 653 876 b 564 1014 597 1006 583 1014 b 40 1015 411 1017 194 1018 b 8 969 10 1015 -3 999 b 426 25 93 739 301 260 b 468 -1 435 8 450 0 z m 1439 1128 l 1335 1331 b 1293 1356 1325 1347 1311 1356 l 1110 1356 b 1089 1317 1079 1356 1072 1342 l 1232 1108 b 1276 1085 1243 1093 1258 1085 l 1413 1085 b 1439 1128 1443 1085 1453 1100 z "},"X":{"ha":1739,"x_min":0,"x_max":0,"o":"m 42 0 l 543 0 b 586 24 561 0 576 8 b 764 256 633 92 707 183 b 825 258 782 275 807 276 l 1054 21 b 1103 -1 1068 7 1083 0 b 1688 -1 1236 -4 1540 -4 b 1708 39 1718 0 1725 14 b 1310 497 1603 181 1400 394 b 1311 542 1296 514 1297 526 b 1704 978 1425 653 1594 853 b 1688 1014 1724 1001 1718 1014 l 1189 1014 b 1142 993 1171 1014 1154 1007 l 964 803 b 900 801 946 783 918 783 b 711 994 846 858 772 933 b 663 1015 697 1007 682 1014 b 63 1015 531 1018 240 1018 b 47 979 32 1014 26 1001 b 400 588 158 857 318 676 b 401 540 414 572 414 558 l 22 39 b 42 0 4 14 11 0 z "},"Y":{"ha":1797,"x_min":0,"x_max":0,"o":"m 676 0 b 1175 0 807 -4 1046 -4 b 1206 31 1196 0 1206 10 b 1197 314 1206 99 1203 214 b 1215 364 1196 333 1201 349 b 1788 976 1406 554 1656 813 b 1769 1015 1807 1000 1800 1014 b 1301 1015 1635 1017 1419 1017 b 1254 994 1283 1014 1267 1007 b 997 747 1179 919 1075 819 b 935 747 978 731 951 732 b 668 994 861 817 747 918 b 619 1015 656 1007 639 1014 b 28 1015 458 1018 231 1018 b 13 978 -3 1014 -8 1001 b 624 354 176 792 447 524 b 644 304 639 339 644 324 l 646 31 b 676 0 646 10 654 0 z "},"Ý":{"ha":1797,"x_min":0,"x_max":0,"o":"m 676 0 b 1175 0 807 -4 1046 -4 b 1206 31 1196 0 1206 10 b 1197 314 1206 99 1203 214 b 1215 364 1196 333 1201 349 b 1788 976 1406 554 1656 813 b 1769 1015 1807 1000 1800 1014 b 1301 1015 1635 1017 1419 1017 b 1254 994 1283 1014 1267 1007 b 997 747 1179 919 1075 819 b 935 747 978 731 951 732 b 668 994 861 817 747 918 b 619 1015 656 1007 639 1014 b 28 1015 458 1018 231 1018 b 13 978 -3 1014 -8 1001 b 624 354 176 792 447 524 b 644 304 639 339 644 324 l 646 31 b 676 0 646 10 654 0 z m 793 1085 l 926 1085 b 971 1108 944 1085 960 1093 l 1118 1317 b 1097 1356 1135 1342 1128 1356 l 914 1356 b 872 1331 894 1356 881 1347 l 767 1128 b 793 1085 753 1100 763 1085 z "},"Ŷ":{"ha":1797,"x_min":0,"x_max":0,"o":"m 676 0 b 1175 0 807 -4 1046 -4 b 1206 31 1196 0 1206 10 b 1197 314 1206 99 1203 214 b 1215 364 1196 333 1201 349 b 1788 976 1406 554 1656 813 b 1769 1015 1807 1000 1800 1014 b 1301 1015 1635 1017 1419 1017 b 1254 994 1283 1014 1267 1007 b 997 747 1179 919 1075 819 b 935 747 978 731 951 732 b 668 994 861 817 747 918 b 619 1015 656 1007 639 1014 b 28 1015 458 1018 231 1018 b 13 978 -3 1014 -8 1001 b 624 354 176 792 447 524 b 644 304 639 339 644 324 l 646 31 b 676 0 646 10 654 0 z m 774 1326 l 617 1122 b 636 1083 599 1097 606 1083 l 779 1083 b 826 1106 797 1083 814 1092 l 900 1193 l 974 1106 b 1019 1083 985 1092 1001 1083 l 1160 1083 b 1181 1122 1190 1083 1199 1099 l 1035 1326 b 990 1349 1024 1342 1008 1349 l 819 1349 b 774 1326 801 1349 785 1342 z "},"Ÿ":{"ha":1797,"x_min":0,"x_max":0,"o":"m 676 0 b 1175 0 807 -4 1046 -4 b 1206 31 1196 0 1206 10 b 1197 314 1206 99 1203 214 b 1215 364 1196 333 1201 349 b 1788 976 1406 554 1656 813 b 1769 1015 1807 1000 1800 1014 b 1301 1015 1635 1017 1419 1017 b 1254 994 1283 1014 1267 1007 b 997 747 1179 919 1075 819 b 935 747 978 731 951 732 b 668 994 861 817 747 918 b 619 1015 656 1007 639 1014 b 28 1015 458 1018 231 1018 b 13 978 -3 1014 -8 1001 b 624 354 176 792 447 524 b 644 304 639 339 644 324 l 646 31 b 676 0 646 10 654 0 z m 961 1086 l 1158 1086 b 1189 1117 1179 1086 1189 1096 l 1189 1300 b 1158 1331 1189 1322 1179 1331 l 961 1331 b 931 1300 940 1331 931 1321 l 931 1117 b 961 1086 931 1094 940 1086 z m 647 1086 l 842 1086 b 872 1117 864 1086 872 1096 l 872 1300 b 842 1331 872 1322 864 1331 l 647 1331 b 617 1300 625 1331 617 1321 l 617 1117 b 647 1086 617 1094 626 1086 z "},"Ỳ":{"ha":1797,"x_min":0,"x_max":0,"o":"m 676 0 b 1175 0 807 -4 1046 -4 b 1206 31 1196 0 1206 10 b 1197 314 1206 99 1203 214 b 1215 364 1196 333 1201 349 b 1788 976 1406 554 1656 813 b 1769 1015 1807 1000 1800 1014 b 1301 1015 1635 1017 1419 1017 b 1254 994 1283 1014 1267 1007 b 997 747 1179 919 1075 819 b 935 747 978 731 951 732 b 668 994 861 817 747 918 b 619 1015 656 1007 639 1014 b 28 1015 458 1018 231 1018 b 13 978 -3 1014 -8 1001 b 624 354 176 792 447 524 b 644 304 639 339 644 324 l 646 31 b 676 0 646 10 654 0 z m 1046 1128 l 942 1331 b 900 1356 932 1347 918 1356 l 717 1356 b 696 1317 686 1356 679 1342 l 839 1108 b 883 1085 850 1093 865 1085 l 1019 1085 b 1046 1128 1050 1085 1060 1100 z "},"Z":{"ha":1500,"x_min":0,"x_max":0,"o":"m 69 0 l 1435 0 b 1465 31 1456 0 1464 10 l 1465 300 b 1435 329 1465 321 1456 329 l 828 326 b 821 347 800 326 799 333 b 1419 679 1008 458 1225 574 b 1444 721 1436 688 1444 703 l 1444 983 b 1414 1014 1444 1004 1436 1014 b 67 1014 983 1014 417 1015 b 36 983 46 1014 38 1004 l 36 721 b 67 690 36 700 46 692 l 629 692 b 636 669 657 692 658 683 b 63 335 458 561 222 439 b 39 290 46 324 39 310 l 39 31 b 69 0 39 10 47 0 z "},"a":{"ha":1386,"x_min":0,"x_max":0,"o":"m 475 -15 b 844 65 706 -15 744 -1 b 894 44 868 79 888 71 l 897 31 b 935 0 901 8 913 0 l 1303 0 b 1333 31 1324 0 1332 10 l 1332 489 b 1267 735 1332 617 1311 690 b 703 832 1200 801 1099 832 b 114 736 278 831 179 803 b 43 571 82 704 56 640 b 69 539 39 549 47 540 b 506 539 181 536 383 536 b 540 564 524 540 533 547 b 557 588 546 574 550 581 b 693 608 572 603 590 608 b 853 586 814 608 836 601 b 867 540 863 576 867 561 l 867 528 b 842 503 867 511 860 503 l 579 494 b 92 417 197 485 140 465 b 33 232 51 376 33 321 b 86 50 33 161 47 89 b 475 -15 135 0 203 -15 z m 635 204 b 514 221 543 204 525 208 b 500 261 504 229 500 243 b 513 301 500 278 503 292 b 681 326 525 314 550 322 l 839 332 b 861 307 857 332 864 325 b 814 240 856 278 842 258 b 635 204 767 215 713 204 z "},"á":{"ha":1386,"x_min":0,"x_max":0,"o":"m 475 -15 b 844 65 706 -15 744 -1 b 894 44 868 79 888 71 l 897 31 b 935 0 901 8 913 0 l 1303 0 b 1333 31 1324 0 1332 10 l 1332 489 b 1267 735 1332 617 1311 690 b 703 832 1200 801 1099 832 b 114 736 278 831 179 803 b 43 571 82 704 56 640 b 69 539 39 549 47 540 b 506 539 181 536 383 536 b 540 564 524 540 533 547 b 557 588 546 574 550 581 b 693 608 572 603 590 608 b 853 586 814 608 836 601 b 867 540 863 576 867 561 l 867 528 b 842 503 867 511 860 503 l 579 494 b 92 417 197 485 140 465 b 33 232 51 376 33 321 b 86 50 33 161 47 89 b 475 -15 135 0 203 -15 z m 635 204 b 514 221 543 204 525 208 b 500 261 504 229 500 243 b 513 301 500 278 503 292 b 681 326 525 314 550 322 l 839 332 b 861 307 857 332 864 325 b 814 240 856 278 842 258 b 635 204 767 215 713 204 z m 603 879 l 733 879 b 776 903 750 879 765 888 l 919 1106 b 900 1143 936 1129 929 1143 l 721 1143 b 681 1119 701 1143 689 1135 l 578 922 b 603 879 564 894 574 879 z "},"â":{"ha":1386,"x_min":0,"x_max":0,"o":"m 475 -15 b 844 65 706 -15 744 -1 b 894 44 868 79 888 71 l 897 31 b 935 0 901 8 913 0 l 1303 0 b 1333 31 1324 0 1332 10 l 1332 489 b 1267 735 1332 617 1311 690 b 703 832 1200 801 1099 832 b 114 736 278 831 179 803 b 43 571 82 704 56 640 b 69 539 39 549 47 540 b 506 539 181 536 383 536 b 540 564 524 540 533 547 b 557 588 546 574 550 581 b 693 608 572 603 590 608 b 853 586 814 608 836 601 b 867 540 863 576 867 561 l 867 528 b 842 503 867 511 860 503 l 579 494 b 92 417 197 485 140 465 b 33 232 51 376 33 321 b 86 50 33 161 47 89 b 475 -15 135 0 203 -15 z m 635 204 b 514 221 543 204 525 208 b 500 261 504 229 500 243 b 513 301 500 278 503 292 b 681 326 525 314 550 322 l 839 332 b 861 307 857 332 864 325 b 814 240 856 278 842 258 b 635 204 767 215 713 204 z m 583 1115 l 431 917 b 449 878 413 892 419 878 l 589 878 b 635 900 607 878 622 886 l 707 985 l 778 900 b 824 878 789 886 806 878 l 960 878 b 981 917 990 878 997 893 l 838 1115 b 794 1136 828 1129 813 1136 l 628 1136 b 583 1115 611 1136 594 1129 z "},"ä":{"ha":1386,"x_min":0,"x_max":0,"o":"m 475 -15 b 844 65 706 -15 744 -1 b 894 44 868 79 888 71 l 897 31 b 935 0 901 8 913 0 l 1303 0 b 1333 31 1324 0 1332 10 l 1332 489 b 1267 735 1332 617 1311 690 b 703 832 1200 801 1099 832 b 114 736 278 831 179 803 b 43 571 82 704 56 640 b 69 539 39 549 47 540 b 506 539 181 536 383 536 b 540 564 524 540 533 547 b 557 588 546 574 550 581 b 693 608 572 603 590 608 b 853 586 814 608 836 601 b 867 540 863 576 867 561 l 867 528 b 842 503 867 511 860 503 l 579 494 b 92 417 197 485 140 465 b 33 232 51 376 33 321 b 86 50 33 161 47 89 b 475 -15 135 0 203 -15 z m 635 204 b 514 221 543 204 525 208 b 500 261 504 229 500 243 b 513 301 500 278 503 292 b 681 326 525 314 550 322 l 839 332 b 861 307 857 332 864 325 b 814 240 856 278 842 258 b 635 204 767 215 713 204 z m 768 881 l 960 881 b 990 911 981 881 990 890 l 990 1089 b 960 1119 990 1111 981 1119 l 768 1119 b 738 1089 747 1119 738 1110 l 738 911 b 768 881 738 889 747 881 z m 461 881 l 651 881 b 681 911 672 881 681 890 l 681 1089 b 651 1119 681 1111 672 1119 l 461 1119 b 432 1089 440 1119 432 1110 l 432 911 b 461 881 432 889 442 881 z "},"à":{"ha":1386,"x_min":0,"x_max":0,"o":"m 475 -15 b 844 65 706 -15 744 -1 b 894 44 868 79 888 71 l 897 31 b 935 0 901 8 913 0 l 1303 0 b 1333 31 1324 0 1332 10 l 1332 489 b 1267 735 1332 617 1311 690 b 703 832 1200 801 1099 832 b 114 736 278 831 179 803 b 43 571 82 704 56 640 b 69 539 39 549 47 540 b 506 539 181 536 383 536 b 540 564 524 540 533 547 b 557 588 546 574 550 581 b 693 608 572 603 590 608 b 853 586 814 608 836 601 b 867 540 863 576 867 561 l 867 528 b 842 503 867 511 860 503 l 579 494 b 92 417 197 485 140 465 b 33 232 51 376 33 321 b 86 50 33 161 47 89 b 475 -15 135 0 203 -15 z m 635 204 b 514 221 543 204 525 208 b 500 261 504 229 500 243 b 513 301 500 278 503 292 b 681 326 525 314 550 322 l 839 332 b 861 307 857 332 864 325 b 814 240 856 278 842 258 b 635 204 767 215 713 204 z m 849 922 l 747 1119 b 707 1143 738 1135 725 1143 l 528 1143 b 508 1106 499 1143 492 1129 l 647 903 b 690 879 658 888 674 879 l 824 879 b 849 922 853 879 863 894 z "},"å":{"ha":1386,"x_min":0,"x_max":0,"o":"m 475 -15 b 844 65 706 -15 744 -1 b 894 44 868 79 888 71 l 897 31 b 935 0 901 8 913 0 l 1303 0 b 1333 31 1324 0 1332 10 l 1332 489 b 1267 735 1332 617 1311 690 b 703 832 1200 801 1099 832 b 114 736 278 831 179 803 b 43 571 82 704 56 640 b 69 539 39 549 47 540 b 506 539 181 536 383 536 b 540 564 524 540 533 547 b 557 588 546 574 550 581 b 693 608 572 603 590 608 b 853 586 814 608 836 601 b 867 540 863 576 867 561 l 867 528 b 842 503 867 511 860 503 l 579 494 b 92 417 197 485 140 465 b 33 232 51 376 33 321 b 86 50 33 161 47 89 b 475 -15 135 0 203 -15 z m 635 204 b 514 221 543 204 525 208 b 500 261 504 229 500 243 b 513 301 500 278 503 292 b 681 326 525 314 550 322 l 839 332 b 861 307 857 332 864 325 b 814 240 856 278 842 258 b 635 204 767 215 713 204 z m 708 861 b 917 1053 825 861 917 942 b 708 1243 917 1163 825 1243 b 500 1053 590 1243 500 1163 b 708 861 500 942 590 861 z m 708 994 b 650 1053 675 994 650 1021 b 708 1110 650 1085 675 1110 b 765 1053 742 1110 765 1085 b 708 994 765 1021 742 994 z "},"ã":{"ha":1386,"x_min":0,"x_max":0,"o":"m 475 -15 b 844 65 706 -15 744 -1 b 894 44 868 79 888 71 l 897 31 b 935 0 901 8 913 0 l 1303 0 b 1333 31 1324 0 1332 10 l 1332 489 b 1267 735 1332 617 1311 690 b 703 832 1200 801 1099 832 b 114 736 278 831 179 803 b 43 571 82 704 56 640 b 69 539 39 549 47 540 b 506 539 181 536 383 536 b 540 564 524 540 533 547 b 557 588 546 574 550 581 b 693 608 572 603 590 608 b 853 586 814 608 836 601 b 867 540 863 576 867 561 l 867 528 b 842 503 867 511 860 503 l 579 494 b 92 417 197 485 140 465 b 33 232 51 376 33 321 b 86 50 33 161 47 89 b 475 -15 135 0 203 -15 z m 635 204 b 514 221 543 204 525 208 b 500 261 504 229 500 243 b 513 301 500 278 503 292 b 681 326 525 314 550 322 l 839 332 b 861 307 857 332 864 325 b 814 240 856 278 842 258 b 635 204 767 215 713 204 z m 853 869 b 968 908 900 869 938 881 b 988 954 981 921 988 936 l 988 1076 b 953 1090 988 1106 975 1111 b 857 1063 925 1071 894 1063 b 729 1090 813 1063 774 1076 b 576 1125 682 1107 633 1125 b 458 1083 529 1125 490 1111 b 439 1036 446 1072 439 1056 l 439 918 b 474 901 439 888 451 882 b 569 929 504 924 533 929 b 697 903 615 929 654 918 b 853 869 746 886 794 869 z "},"æ":{"ha":2261,"x_min":0,"x_max":0,"o":"m 475 -15 b 844 65 706 -15 744 -1 b 894 44 868 79 888 71 l 897 31 b 935 0 901 8 913 0 l 1093 0 b 1549 -21 1182 -15 1321 -21 b 2150 68 1981 -21 2083 -3 b 2222 238 2190 108 2211 165 b 2197 269 2226 258 2218 268 b 1776 275 2094 274 1885 276 b 1729 249 1756 275 1742 267 b 1721 239 1728 244 1724 242 b 1556 219 1703 225 1678 219 b 1363 246 1418 219 1381 228 b 1339 304 1351 257 1343 274 b 1365 333 1336 325 1344 333 l 2200 335 b 2231 365 2222 335 2231 344 b 2138 740 2224 560 2194 683 b 1546 828 2072 806 1971 828 b 1110 808 1332 828 1199 822 b 703 832 1026 824 903 832 b 114 736 278 831 179 803 b 43 571 82 704 56 640 b 69 539 39 549 47 540 b 506 539 181 536 383 536 b 540 564 524 540 533 547 b 557 588 546 574 550 581 b 693 608 572 603 590 608 b 853 586 814 608 836 601 b 867 540 863 576 867 561 l 867 528 b 842 503 867 511 860 503 l 579 494 b 92 417 197 485 140 465 b 33 232 51 376 33 321 b 86 50 33 161 47 89 b 475 -15 135 0 203 -15 z m 635 204 b 514 221 543 204 525 208 b 500 261 504 229 500 243 b 513 301 500 278 503 292 b 681 326 525 314 550 322 l 839 332 b 861 307 857 332 864 325 b 814 240 856 278 842 258 b 635 204 767 215 713 204 z m 1344 525 b 1365 572 1349 549 1357 563 b 1547 600 1385 589 1419 600 b 1719 574 1669 600 1701 592 b 1740 526 1729 565 1735 551 b 1715 497 1743 506 1736 497 l 1368 496 b 1344 525 1347 496 1340 504 z "},"b":{"ha":1446,"x_min":0,"x_max":0,"o":"m 938 -17 b 1324 58 1200 -17 1275 10 b 1407 400 1374 108 1407 208 b 1324 756 1407 596 1374 707 b 926 829 1274 803 1190 829 b 561 753 690 829 657 801 b 517 779 535 740 518 751 l 519 1057 b 489 1088 519 1078 510 1086 l 100 1088 b 68 1057 78 1088 69 1078 b 61 526 63 919 61 704 b 68 31 61 360 63 192 b 99 0 68 8 78 0 l 463 0 b 497 31 483 0 494 10 l 499 46 b 547 71 504 74 522 82 b 938 -17 674 1 700 -17 z m 731 256 b 558 300 635 256 586 275 b 521 406 532 324 521 351 b 553 513 521 458 531 490 b 725 554 579 536 619 554 b 906 524 857 554 886 543 b 932 399 925 504 932 468 b 907 285 932 338 925 303 b 731 256 885 264 851 256 z "},"c":{"ha":1418,"x_min":0,"x_max":0,"o":"m 704 -19 b 1313 71 1142 -19 1243 1 b 1392 319 1356 114 1379 190 b 1364 353 1393 342 1385 350 b 953 360 1236 360 1086 361 b 917 329 931 358 921 350 b 890 269 911 299 903 282 b 710 243 874 253 843 243 b 536 271 592 243 556 253 b 508 397 518 289 508 325 b 539 542 507 471 519 522 b 710 569 558 560 592 569 b 886 542 846 569 869 558 b 914 490 900 529 907 514 b 953 460 919 469 931 460 b 1364 461 1074 458 1235 458 b 1392 492 1385 461 1393 471 b 1307 743 1383 599 1354 696 b 704 828 1242 807 1142 828 b 128 743 296 828 192 806 b 38 403 69 685 38 569 b 124 71 38 235 64 129 b 704 -19 190 4 292 -19 z "},"ç":{"ha":1418,"x_min":0,"x_max":0,"o":"m 38 403 b 124 71 38 235 64 129 b 589 -18 183 11 272 -14 l 514 -172 b 539 -214 500 -200 510 -214 l 711 -214 b 746 -189 729 -214 740 -204 l 803 -19 b 1313 71 1158 -15 1249 7 b 1392 319 1356 114 1379 190 b 1364 353 1393 342 1385 350 b 953 360 1236 360 1086 361 b 917 329 931 358 921 350 b 890 269 911 299 903 282 b 710 243 874 253 843 243 b 536 271 592 243 556 253 b 508 397 518 289 508 325 b 539 542 507 471 519 522 b 710 569 558 560 592 569 b 886 542 846 569 869 558 b 914 490 900 529 907 514 b 953 460 919 469 931 460 b 1364 461 1074 458 1235 458 b 1392 492 1385 461 1393 471 b 1307 743 1383 599 1354 696 b 704 828 1242 807 1142 828 b 128 743 296 828 192 806 b 38 403 69 685 38 569 z "},"d":{"ha":1446,"x_min":0,"x_max":0,"o":"m 508 -17 b 899 71 746 -17 772 1 b 947 46 924 82 942 74 l 949 31 b 983 0 951 10 963 0 l 1347 0 b 1378 31 1368 0 1378 8 b 1385 526 1383 192 1385 360 b 1378 1057 1385 704 1383 919 b 1346 1088 1376 1078 1368 1088 l 957 1088 b 926 1057 936 1086 926 1078 l 929 779 b 885 753 928 751 911 740 b 519 829 789 801 756 829 b 122 756 256 829 172 803 b 39 400 72 707 39 596 b 122 58 39 208 72 108 b 508 -17 171 10 246 -17 z m 715 256 b 539 285 594 256 561 264 b 514 399 521 303 514 338 b 540 524 514 468 521 504 b 721 554 560 543 589 554 b 893 513 826 554 867 536 b 925 406 915 490 925 458 b 888 300 925 351 914 324 b 715 256 860 275 811 256 z "},"e":{"ha":1438,"x_min":0,"x_max":0,"o":"m 725 -21 b 1326 68 1157 -21 1260 -3 b 1399 238 1367 108 1388 165 b 1374 269 1403 258 1394 268 b 953 275 1271 274 1061 276 b 906 249 932 275 918 267 b 897 239 904 244 900 242 b 732 219 879 225 854 219 b 539 246 594 219 557 228 b 515 304 528 257 519 274 b 542 333 513 325 521 333 l 1376 335 b 1407 365 1399 335 1407 344 b 1314 740 1400 560 1371 683 b 722 828 1249 806 1147 828 b 131 742 307 828 194 807 b 39 403 74 685 39 569 b 128 63 39 240 71 119 b 725 -21 193 -4 313 -21 z m 521 525 b 542 572 525 549 533 563 b 724 600 561 589 596 600 b 896 574 846 600 878 592 b 917 526 906 565 911 551 b 892 497 919 506 913 497 l 544 496 b 521 525 524 496 517 504 z "},"é":{"ha":1438,"x_min":0,"x_max":0,"o":"m 725 -21 b 1326 68 1157 -21 1260 -3 b 1399 238 1367 108 1388 165 b 1374 269 1403 258 1394 268 b 953 275 1271 274 1061 276 b 906 249 932 275 918 267 b 897 239 904 244 900 242 b 732 219 879 225 854 219 b 539 246 594 219 557 228 b 515 304 528 257 519 274 b 542 333 513 325 521 333 l 1376 335 b 1407 365 1399 335 1407 344 b 1314 740 1400 560 1371 683 b 722 828 1249 806 1147 828 b 131 742 307 828 194 807 b 39 403 74 685 39 569 b 128 63 39 240 71 119 b 725 -21 193 -4 313 -21 z m 521 525 b 542 572 525 549 533 563 b 724 600 561 589 596 600 b 896 574 846 600 878 592 b 917 526 906 565 911 551 b 892 497 919 506 913 497 l 544 496 b 521 525 524 496 517 504 z m 614 879 l 744 879 b 788 903 761 879 776 888 l 931 1106 b 911 1143 947 1129 940 1143 l 732 1143 b 692 1119 713 1143 700 1135 l 589 922 b 614 879 575 894 585 879 z "},"ê":{"ha":1438,"x_min":0,"x_max":0,"o":"m 725 -21 b 1326 68 1157 -21 1260 -3 b 1399 238 1367 108 1388 165 b 1374 269 1403 258 1394 268 b 953 275 1271 274 1061 276 b 906 249 932 275 918 267 b 897 239 904 244 900 242 b 732 219 879 225 854 219 b 539 246 594 219 557 228 b 515 304 528 257 519 274 b 542 333 513 325 521 333 l 1376 335 b 1407 365 1399 335 1407 344 b 1314 740 1400 560 1371 683 b 722 828 1249 806 1147 828 b 131 742 307 828 194 807 b 39 403 74 685 39 569 b 128 63 39 240 71 119 b 725 -21 193 -4 313 -21 z m 521 525 b 542 572 525 549 533 563 b 724 600 561 589 596 600 b 896 574 846 600 878 592 b 917 526 906 565 911 551 b 892 497 919 506 913 497 l 544 496 b 521 525 524 496 517 504 z m 594 1115 l 442 917 b 460 878 424 892 431 878 l 600 878 b 646 900 618 878 633 886 l 718 985 l 789 900 b 835 878 800 886 817 878 l 971 878 b 992 917 1001 878 1008 893 l 849 1115 b 806 1136 839 1129 824 1136 l 639 1136 b 594 1115 622 1136 606 1129 z "},"ë":{"ha":1438,"x_min":0,"x_max":0,"o":"m 725 -21 b 1326 68 1157 -21 1260 -3 b 1399 238 1367 108 1388 165 b 1374 269 1403 258 1394 268 b 953 275 1271 274 1061 276 b 906 249 932 275 918 267 b 897 239 904 244 900 242 b 732 219 879 225 854 219 b 539 246 594 219 557 228 b 515 304 528 257 519 274 b 542 333 513 325 521 333 l 1376 335 b 1407 365 1399 335 1407 344 b 1314 740 1400 560 1371 683 b 722 828 1249 806 1147 828 b 131 742 307 828 194 807 b 39 403 74 685 39 569 b 128 63 39 240 71 119 b 725 -21 193 -4 313 -21 z m 521 525 b 542 572 525 549 533 563 b 724 600 561 589 596 600 b 896 574 846 600 878 592 b 917 526 906 565 911 551 b 892 497 919 506 913 497 l 544 496 b 521 525 524 496 517 504 z m 778 881 l 969 881 b 1000 911 990 881 1000 890 l 1000 1089 b 969 1119 1000 1111 990 1119 l 778 1119 b 747 1089 757 1119 747 1110 l 747 911 b 778 881 747 889 757 881 z m 471 881 l 661 881 b 690 911 682 881 690 890 l 690 1089 b 661 1119 690 1111 682 1119 l 471 1119 b 442 1089 450 1119 442 1110 l 442 911 b 471 881 442 889 451 881 z "},"è":{"ha":1438,"x_min":0,"x_max":0,"o":"m 725 -21 b 1326 68 1157 -21 1260 -3 b 1399 238 1367 108 1388 165 b 1374 269 1403 258 1394 268 b 953 275 1271 274 1061 276 b 906 249 932 275 918 267 b 897 239 904 244 900 242 b 732 219 879 225 854 219 b 539 246 594 219 557 228 b 515 304 528 257 519 274 b 542 333 513 325 521 333 l 1376 335 b 1407 365 1399 335 1407 344 b 1314 740 1400 560 1371 683 b 722 828 1249 806 1147 828 b 131 742 307 828 194 807 b 39 403 74 685 39 569 b 128 63 39 240 71 119 b 725 -21 193 -4 313 -21 z m 521 525 b 542 572 525 549 533 563 b 724 600 561 589 596 600 b 896 574 846 600 878 592 b 917 526 906 565 911 551 b 892 497 919 506 913 497 l 544 496 b 521 525 524 496 517 504 z m 860 922 l 758 1119 b 718 1143 749 1135 736 1143 l 539 1143 b 519 1106 510 1143 503 1129 l 658 903 b 701 879 669 888 685 879 l 835 879 b 860 922 864 879 874 894 z "},"f":{"ha":1183,"x_min":0,"x_max":0,"o":"m 308 0 l 719 0 b 750 31 740 0 750 10 b 742 496 749 169 743 356 b 772 525 742 515 751 525 l 1139 525 b 1169 556 1161 525 1169 533 l 1169 781 b 1139 811 1169 801 1160 810 l 765 811 b 735 838 746 811 736 818 b 829 890 736 872 764 890 b 1143 886 938 890 1063 889 b 1174 917 1165 886 1174 896 l 1174 1100 b 1143 1133 1174 1122 1164 1132 b 749 1139 1064 1136 890 1139 b 281 872 406 1139 281 1046 l 281 840 b 250 811 281 819 271 811 l 36 811 b 6 781 14 811 6 801 l 6 556 b 36 525 6 533 15 525 l 251 525 b 282 496 272 525 281 515 b 278 31 281 351 278 181 b 308 0 278 8 286 0 z "},"g":{"ha":1364,"x_min":0,"x_max":0,"o":"m 650 -357 b 1297 -256 1126 -357 1233 -322 b 1357 -75 1336 -217 1357 -156 b 1292 110 1357 13 1329 76 b 825 183 1242 156 1181 181 b 458 203 494 185 471 189 b 449 228 451 210 449 218 b 454 253 449 235 450 243 b 496 276 464 269 478 276 b 699 275 546 275 601 275 b 1249 347 1126 275 1196 296 b 1304 538 1283 382 1304 444 b 1246 735 1304 624 1282 699 b 1136 785 1222 758 1186 775 b 1106 811 1114 790 1106 797 b 1158 844 1106 833 1126 844 l 1264 846 b 1294 876 1285 846 1293 856 l 1294 1054 b 1264 1085 1294 1076 1285 1085 b 917 1014 1022 1079 963 1058 b 853 853 881 978 867 932 b 819 824 850 832 839 824 b 664 828 788 825 742 828 b 121 743 276 828 183 807 b 51 542 74 697 51 622 b 172 307 51 425 86 356 b 175 265 197 296 197 281 b 40 90 78 197 40 146 b 104 -19 40 43 61 8 b 106 -62 128 -33 129 -49 b 13 -193 40 -107 13 -146 b 44 -275 13 -226 25 -254 b 650 -357 99 -332 193 -357 z m 692 -164 b 426 -139 478 -164 440 -154 b 415 -108 419 -132 415 -121 b 418 -89 415 -103 417 -96 b 456 -64 425 -71 436 -64 l 679 -67 b 940 -87 892 -68 925 -72 b 950 -114 947 -94 950 -104 b 939 -140 950 -125 947 -135 b 692 -164 925 -156 894 -164 z m 679 475 b 514 497 554 475 531 481 b 500 543 503 508 500 524 b 515 596 500 564 504 585 b 679 619 532 613 557 619 b 842 596 796 619 824 613 b 857 546 853 585 857 565 b 843 497 857 524 854 507 b 679 475 828 482 801 475 z "},"h":{"ha":1386,"x_min":0,"x_max":0,"o":"m 99 0 l 497 0 b 529 31 519 0 528 10 l 531 326 b 571 474 531 408 542 446 b 718 515 599 499 632 515 b 849 492 799 515 829 508 b 872 353 869 471 872 433 b 872 31 872 217 869 118 b 903 0 872 8 882 0 l 1303 0 b 1333 31 1324 0 1333 10 b 1338 482 1336 144 1338 272 b 1274 764 1338 619 1326 714 b 917 829 1226 810 1142 829 b 561 743 728 829 676 819 b 519 765 536 728 521 736 l 528 1057 b 497 1088 528 1078 518 1086 l 103 1088 b 72 1057 82 1088 72 1078 b 65 428 67 876 65 650 l 67 31 b 99 0 68 8 76 0 z "},"i":{"ha":582,"x_min":0,"x_max":0,"o":"m 94 0 l 489 0 b 521 31 511 0 519 10 b 521 781 525 215 525 592 b 489 811 519 801 510 810 l 94 811 b 63 781 72 811 64 801 b 63 31 57 592 57 218 b 94 0 64 8 72 0 z m 92 876 l 490 876 b 524 907 513 876 522 886 b 522 1100 526 956 526 1038 b 490 1131 521 1122 511 1131 l 90 1131 b 58 1100 69 1131 60 1121 b 58 907 56 1043 56 960 b 92 876 60 885 69 876 z "},"ı":{"ha":603,"x_min":0,"x_max":0,"o":"m 104 0 l 500 0 b 529 28 519 0 528 8 b 529 783 533 214 533 592 b 500 811 528 803 519 811 l 104 811 b 75 783 85 811 76 803 b 75 28 69 593 69 218 b 104 0 76 8 85 0 z "},"í":{"ha":603,"x_min":0,"x_max":0,"o":"m 104 0 l 500 0 b 529 28 519 0 528 8 b 529 783 533 214 533 592 b 500 811 528 803 519 811 l 104 811 b 75 783 85 811 76 803 b 75 28 69 593 69 218 b 104 0 76 8 85 0 z m 197 879 l 328 879 b 371 903 344 879 360 888 l 514 1106 b 494 1143 531 1129 524 1143 l 315 1143 b 275 1119 296 1143 283 1135 l 172 922 b 197 879 158 894 168 879 z "},"î":{"ha":603,"x_min":0,"x_max":0,"o":"m 104 0 l 500 0 b 529 28 519 0 528 8 b 529 783 533 214 533 592 b 500 811 528 803 519 811 l 104 811 b 75 783 85 811 76 803 b 75 28 69 593 69 218 b 104 0 76 8 85 0 z m 178 1115 l 25 917 b 43 878 7 892 14 878 l 183 878 b 229 900 201 878 217 886 l 301 985 l 372 900 b 418 878 383 886 400 878 l 554 878 b 575 917 585 878 592 893 l 432 1115 b 389 1136 422 1129 407 1136 l 222 1136 b 178 1115 206 1136 189 1129 z "},"ï":{"ha":603,"x_min":0,"x_max":0,"o":"m 104 0 l 500 0 b 529 28 519 0 528 8 b 529 783 533 214 533 592 b 500 811 528 803 519 811 l 104 811 b 75 783 85 811 76 803 b 75 28 69 593 69 218 b 104 0 76 8 85 0 z m 363 881 l 554 881 b 585 911 575 881 585 890 l 585 1089 b 554 1119 585 1111 575 1119 l 363 1119 b 332 1089 342 1119 332 1110 l 332 911 b 363 881 332 889 342 881 z m 56 881 l 246 881 b 275 911 267 881 275 890 l 275 1089 b 246 1119 275 1111 267 1119 l 56 1119 b 26 1089 35 1119 26 1110 l 26 911 b 56 881 26 889 36 881 z "},"ì":{"ha":603,"x_min":0,"x_max":0,"o":"m 104 0 l 500 0 b 529 28 519 0 528 8 b 529 783 533 214 533 592 b 500 811 528 803 519 811 l 104 811 b 75 783 85 811 76 803 b 75 28 69 593 69 218 b 104 0 76 8 85 0 z m 443 922 l 342 1119 b 301 1143 332 1135 319 1143 l 122 1143 b 103 1106 93 1143 86 1129 l 242 903 b 285 879 253 888 268 879 l 418 879 b 443 922 447 879 457 894 z "},"ĳ":{"ha":1183,"x_min":0,"x_max":0,"o":"m 94 0 l 489 0 b 521 31 511 0 519 10 b 521 781 525 215 525 592 b 489 811 519 801 510 810 l 94 811 b 63 781 72 811 64 801 b 63 31 57 592 57 218 b 94 0 64 8 72 0 z m 92 876 l 490 876 b 524 907 513 876 522 886 b 522 1100 526 956 526 1038 b 490 1131 521 1122 511 1131 l 90 1131 b 58 1100 69 1131 60 1121 b 58 907 56 1043 56 960 b 92 876 60 885 69 876 z m 722 -346 b 1121 -89 1026 -346 1121 -267 b 1111 781 1122 128 1117 550 b 1081 811 1111 801 1101 810 l 683 811 b 651 781 661 811 653 801 b 656 -11 647 551 651 224 b 576 -68 656 -53 640 -68 l 367 -68 b 336 -99 346 -68 338 -78 l 336 -306 b 367 -339 336 -326 346 -336 b 722 -346 446 -343 593 -346 z m 681 876 l 1081 876 b 1114 907 1101 876 1111 886 b 1114 1099 1117 961 1115 1043 b 1081 1129 1113 1121 1101 1129 l 681 1129 b 649 1099 660 1129 650 1119 b 649 907 646 1047 644 963 b 681 876 650 886 660 878 z "},"j":{"ha":603,"x_min":0,"x_max":0,"o":"m 142 -346 b 540 -89 446 -346 540 -267 b 531 781 542 128 536 550 b 500 811 531 801 521 810 l 103 811 b 71 781 81 811 72 801 b 75 -11 67 551 71 224 b -4 -68 75 -53 60 -68 l -214 -68 b -244 -99 -235 -68 -243 -78 l -244 -306 b -214 -339 -244 -326 -235 -336 b 142 -346 -135 -343 13 -346 z m 100 876 l 500 876 b 533 907 521 876 531 886 b 533 1099 536 961 535 1043 b 500 1129 532 1121 521 1129 l 100 1129 b 68 1099 79 1129 69 1119 b 68 907 65 1047 64 963 b 100 876 69 886 79 878 z "},"ȷ":{"ha":610,"x_min":0,"x_max":0,"o":"m 142 -346 b 540 -89 446 -346 540 -267 b 531 781 542 128 536 550 b 500 811 531 801 521 810 l 103 811 b 71 781 81 811 72 801 b 75 -11 67 551 71 224 b -4 -68 75 -53 60 -68 l -214 -68 b -244 -99 -235 -68 -243 -78 l -244 -306 b -214 -339 -244 -326 -235 -336 b 142 -346 -135 -343 13 -346 z "},"k":{"ha":1394,"x_min":0,"x_max":0,"o":"m 104 0 l 511 0 b 542 31 533 0 542 10 l 540 314 b 575 331 540 344 556 350 b 847 21 651 253 754 128 b 894 0 860 7 875 0 l 1399 0 b 1417 38 1429 0 1436 14 b 1036 454 1299 178 1161 325 b 1039 492 1024 467 1025 481 b 1379 779 1135 568 1285 694 b 1367 811 1401 799 1397 811 l 900 811 b 850 792 881 811 864 804 b 575 563 767 721 658 632 b 536 578 553 543 536 551 b 544 1056 538 700 543 899 b 514 1086 544 1076 535 1085 l 104 1086 b 74 1056 83 1086 74 1076 b 74 31 68 763 68 328 b 104 0 74 8 83 0 z "},"l":{"ha":590,"x_min":0,"x_max":0,"o":"m 97 0 l 493 0 b 525 31 515 0 524 10 b 524 1056 531 319 531 774 b 492 1086 524 1078 514 1086 l 97 1086 b 67 1056 75 1086 67 1078 b 65 31 61 768 60 326 b 97 0 67 8 76 0 z "},"m":{"ha":2104,"x_min":0,"x_max":0,"o":"m 89 0 l 492 0 b 522 31 514 0 522 10 b 522 346 524 111 522 197 b 563 479 522 421 533 453 b 683 518 589 504 619 518 b 800 493 751 518 782 510 b 824 356 819 476 824 443 l 821 31 b 851 0 821 8 831 0 l 1256 0 b 1288 31 1278 0 1286 10 l 1289 350 b 1328 481 1289 422 1300 454 b 1444 518 1354 506 1383 518 b 1563 493 1513 518 1544 511 b 1585 357 1579 476 1585 442 b 1583 31 1583 240 1582 128 b 1614 0 1583 8 1593 0 l 2018 0 b 2049 31 2040 0 2049 10 b 2051 488 2050 133 2051 260 b 1986 757 2051 636 2035 710 b 1635 828 1933 808 1854 828 b 1283 719 1435 828 1388 810 b 1239 725 1265 703 1253 704 b 901 828 1178 814 1128 828 b 542 736 682 828 646 818 b 497 754 518 719 501 726 l 494 781 b 461 811 493 801 483 810 l 94 811 b 63 781 74 811 64 801 b 57 367 58 661 57 515 l 58 31 b 89 0 58 8 68 0 z "},"n":{"ha":1385,"x_min":0,"x_max":0,"o":"m 93 0 l 492 0 b 524 31 514 0 522 10 b 524 326 525 124 524 219 b 564 472 524 408 535 446 b 719 513 593 500 626 514 b 843 490 796 513 824 508 b 865 347 861 472 865 442 b 865 31 865 232 864 118 b 897 0 867 8 876 0 l 1297 0 b 1328 31 1318 0 1328 10 b 1332 457 1331 125 1332 267 b 1264 764 1332 625 1319 711 b 899 829 1215 811 1133 829 b 538 742 688 829 651 822 b 492 763 514 726 496 733 l 489 781 b 456 811 488 801 476 810 l 96 811 b 64 781 75 811 65 801 b 57 363 60 660 57 499 b 61 31 57 243 58 124 b 93 0 63 8 72 0 z "},"ñ":{"ha":1385,"x_min":0,"x_max":0,"o":"m 93 0 l 492 0 b 524 31 514 0 522 10 b 524 326 525 124 524 219 b 564 472 524 408 535 446 b 719 513 593 500 626 514 b 843 490 796 513 824 508 b 865 347 861 472 865 442 b 865 31 865 232 864 118 b 897 0 867 8 876 0 l 1297 0 b 1328 31 1318 0 1328 10 b 1332 457 1331 125 1332 267 b 1264 764 1332 625 1319 711 b 899 829 1215 811 1133 829 b 538 742 688 829 651 822 b 492 763 514 726 496 733 l 489 781 b 456 811 488 801 476 810 l 96 811 b 64 781 75 811 65 801 b 57 363 60 660 57 499 b 61 31 57 243 58 124 b 93 0 63 8 72 0 z m 829 869 b 944 908 876 869 914 881 b 964 954 957 921 964 936 l 964 1076 b 929 1090 964 1106 951 1111 b 833 1063 901 1071 871 1063 b 706 1090 789 1063 750 1076 b 553 1125 658 1107 610 1125 b 435 1083 506 1125 467 1111 b 415 1036 422 1072 415 1056 l 415 918 b 450 901 415 888 428 882 b 546 929 481 924 510 929 b 674 903 592 929 631 918 b 829 869 722 886 771 869 z "},"o":{"ha":1429,"x_min":0,"x_max":0,"o":"m 715 -19 b 1307 69 1128 -19 1240 3 b 1390 406 1364 126 1390 240 b 1307 743 1390 575 1364 688 b 715 829 1240 807 1131 829 b 128 743 317 829 193 807 b 39 406 68 685 39 574 b 125 72 39 243 67 131 b 715 -19 192 3 319 -19 z m 717 246 b 536 275 601 246 557 254 b 508 399 518 293 508 325 b 539 538 508 474 518 517 b 717 565 560 557 601 565 b 892 536 832 565 871 557 b 921 399 913 517 921 474 b 894 275 921 325 913 293 b 717 246 875 256 831 246 z "},"ó":{"ha":1429,"x_min":0,"x_max":0,"o":"m 715 -19 b 1307 69 1128 -19 1240 3 b 1390 406 1364 126 1390 240 b 1307 743 1390 575 1364 688 b 715 829 1240 807 1131 829 b 128 743 317 829 193 807 b 39 406 68 685 39 574 b 125 72 39 243 67 131 b 715 -19 192 3 319 -19 z m 717 246 b 536 275 601 246 557 254 b 508 399 518 293 508 325 b 539 538 508 474 518 517 b 717 565 560 557 601 565 b 892 536 832 565 871 557 b 921 399 913 517 921 474 b 894 275 921 325 913 293 b 717 246 875 256 831 246 z m 611 879 l 742 879 b 785 903 758 879 774 888 l 928 1106 b 908 1143 944 1129 938 1143 l 729 1143 b 689 1119 710 1143 697 1135 l 586 922 b 611 879 572 894 582 879 z "},"ô":{"ha":1429,"x_min":0,"x_max":0,"o":"m 715 -19 b 1307 69 1128 -19 1240 3 b 1390 406 1364 126 1390 240 b 1307 743 1390 575 1364 688 b 715 829 1240 807 1131 829 b 128 743 317 829 193 807 b 39 406 68 685 39 574 b 125 72 39 243 67 131 b 715 -19 192 3 319 -19 z m 717 246 b 536 275 601 246 557 254 b 508 399 518 293 508 325 b 539 538 508 474 518 517 b 717 565 560 557 601 565 b 892 536 832 565 871 557 b 921 399 913 517 921 474 b 894 275 921 325 913 293 b 717 246 875 256 831 246 z m 592 1115 l 439 917 b 457 878 421 892 428 878 l 597 878 b 643 900 615 878 631 886 l 715 985 l 786 900 b 832 878 797 886 814 878 l 968 878 b 989 917 999 878 1006 893 l 846 1115 b 803 1136 836 1129 821 1136 l 636 1136 b 592 1115 619 1136 603 1129 z "},"ö":{"ha":1429,"x_min":0,"x_max":0,"o":"m 715 -19 b 1307 69 1128 -19 1240 3 b 1390 406 1364 126 1390 240 b 1307 743 1390 575 1364 688 b 715 829 1240 807 1131 829 b 128 743 317 829 193 807 b 39 406 68 685 39 574 b 125 72 39 243 67 131 b 715 -19 192 3 319 -19 z m 717 246 b 536 275 601 246 557 254 b 508 399 518 293 508 325 b 539 538 508 474 518 517 b 717 565 560 557 601 565 b 892 536 832 565 871 557 b 921 399 913 517 921 474 b 894 275 921 325 913 293 b 717 246 875 256 831 246 z m 775 881 l 967 881 b 997 911 988 881 997 890 l 997 1089 b 967 1119 997 1111 988 1119 l 775 1119 b 744 1089 754 1119 744 1110 l 744 911 b 775 881 744 889 754 881 z m 468 881 l 658 881 b 688 911 679 881 688 890 l 688 1089 b 658 1119 688 1111 679 1119 l 468 1119 b 439 1089 447 1119 439 1110 l 439 911 b 468 881 439 889 449 881 z "},"ò":{"ha":1429,"x_min":0,"x_max":0,"o":"m 715 -19 b 1307 69 1128 -19 1240 3 b 1390 406 1364 126 1390 240 b 1307 743 1390 575 1364 688 b 715 829 1240 807 1131 829 b 128 743 317 829 193 807 b 39 406 68 685 39 574 b 125 72 39 243 67 131 b 715 -19 192 3 319 -19 z m 717 246 b 536 275 601 246 557 254 b 508 399 518 293 508 325 b 539 538 508 474 518 517 b 717 565 560 557 601 565 b 892 536 832 565 871 557 b 921 399 913 517 921 474 b 894 275 921 325 913 293 b 717 246 875 256 831 246 z m 856 922 l 754 1119 b 714 1143 744 1135 732 1143 l 535 1143 b 515 1106 506 1143 499 1129 l 654 903 b 697 879 665 888 681 879 l 831 879 b 856 922 860 879 869 894 z "},"ø":{"ha":1429,"x_min":0,"x_max":0,"o":"m 715 -19 b 1307 69 1128 -19 1240 3 b 1390 406 1364 126 1390 240 b 1307 743 1390 575 1364 688 b 1042 821 1263 785 1200 810 l 1142 990 b 1118 1031 1157 1017 1149 1031 l 1024 1031 b 983 1008 1006 1031 992 1022 l 878 828 l 715 829 b 128 743 317 829 193 807 b 39 406 68 685 39 574 b 125 72 39 243 67 131 b 385 -10 168 28 236 3 l 283 -183 b 306 -224 268 -208 276 -224 l 403 -224 b 444 -199 421 -224 436 -215 l 550 -18 z m 717 246 l 706 246 l 881 544 b 892 536 885 542 889 539 b 921 399 913 517 921 474 b 894 275 921 325 913 293 b 717 246 875 256 831 246 z m 508 399 b 539 538 508 474 518 517 b 717 565 560 557 601 565 l 724 565 l 547 267 b 536 275 543 269 539 272 b 508 399 518 293 508 325 z "},"õ":{"ha":1429,"x_min":0,"x_max":0,"o":"m 715 -19 b 1307 69 1128 -19 1240 3 b 1390 406 1364 126 1390 240 b 1307 743 1390 575 1364 688 b 715 829 1240 807 1131 829 b 128 743 317 829 193 807 b 39 406 68 685 39 574 b 125 72 39 243 67 131 b 715 -19 192 3 319 -19 z m 717 246 b 536 275 601 246 557 254 b 508 399 518 293 508 325 b 539 538 508 474 518 517 b 717 565 560 557 601 565 b 892 536 832 565 871 557 b 921 399 913 517 921 474 b 894 275 921 325 913 293 b 717 246 875 256 831 246 z m 861 869 b 976 908 908 869 946 881 b 996 954 989 921 996 936 l 996 1076 b 961 1090 996 1106 983 1111 b 865 1063 933 1071 903 1063 b 738 1090 821 1063 782 1076 b 585 1125 690 1107 642 1125 b 467 1083 538 1125 499 1111 b 447 1036 454 1072 447 1056 l 447 918 b 482 901 447 888 460 882 b 578 929 513 924 542 929 b 706 903 624 929 663 918 b 861 869 754 886 803 869 z "},"œ":{"ha":2319,"x_min":0,"x_max":0,"o":"m 715 -19 b 1147 1 926 -19 1060 -14 b 1608 -21 1236 -15 1376 -21 b 2210 68 2040 -21 2143 -3 b 2282 238 2250 108 2271 165 b 2257 269 2286 258 2278 268 b 1836 275 2154 274 1944 276 b 1789 249 1815 275 1801 267 b 1781 239 1788 244 1783 242 b 1615 219 1763 225 1738 219 b 1422 246 1478 219 1440 228 b 1399 304 1411 257 1403 274 b 1425 333 1396 325 1404 333 l 2260 335 b 2290 365 2282 335 2290 344 b 2197 740 2283 560 2254 683 b 1606 828 2132 806 2031 828 b 1163 807 1385 828 1250 822 b 715 829 1075 822 940 829 b 128 743 317 829 193 807 b 39 406 68 685 39 574 b 125 72 39 243 67 131 b 715 -19 192 3 319 -19 z m 717 246 b 536 275 601 246 557 254 b 508 399 518 293 508 325 b 539 538 508 474 518 517 b 717 565 560 557 601 565 b 892 536 832 565 871 557 b 921 399 913 517 921 474 b 894 275 921 325 913 293 b 717 246 875 256 831 246 z m 1404 525 b 1425 572 1408 549 1417 563 b 1607 600 1444 589 1479 600 b 1779 574 1729 600 1761 592 b 1800 526 1789 565 1794 551 b 1775 497 1803 506 1796 497 l 1428 496 b 1404 525 1407 496 1400 504 z "},"p":{"ha":1446,"x_min":0,"x_max":0,"o":"m 92 -287 l 492 -287 b 521 -257 513 -287 521 -279 l 521 10 b 567 40 524 38 540 50 b 931 -19 678 -6 682 -19 b 1325 54 1185 -19 1272 3 b 1406 403 1376 107 1406 210 b 1324 753 1406 597 1375 701 b 924 829 1274 804 1188 829 b 565 744 719 829 676 808 b 515 769 540 732 521 742 l 514 781 b 481 811 513 801 501 810 l 96 811 b 64 781 74 811 65 801 b 57 281 60 613 57 444 b 61 -257 57 125 58 -108 b 92 -287 61 -279 71 -287 z m 735 254 b 554 296 622 254 585 267 b 519 404 531 319 519 349 b 551 510 519 458 529 489 b 729 550 578 536 614 550 b 906 521 853 550 885 540 b 932 403 924 501 932 463 b 908 283 932 335 926 300 b 735 254 888 263 858 254 z "},"þ":{"ha":1450,"x_min":0,"x_max":0,"o":"m 92 -287 l 492 -287 b 521 -257 513 -287 521 -279 l 522 19 b 544 49 522 39 528 49 b 619 19 564 49 581 35 b 931 -19 690 -10 726 -19 b 1325 54 1185 -19 1272 3 b 1406 403 1376 107 1406 210 b 1324 753 1406 597 1375 701 b 924 829 1274 804 1188 829 b 613 774 732 829 681 814 b 540 736 571 749 560 736 b 521 760 528 736 521 746 l 519 1056 b 489 1086 519 1078 510 1086 l 96 1086 b 64 1056 74 1086 65 1078 b 57 281 60 857 57 451 b 61 -257 57 125 58 -108 b 92 -287 61 -279 71 -287 z m 735 254 b 554 296 622 254 585 267 b 519 404 531 319 519 349 b 551 510 519 458 529 489 b 729 550 578 536 614 550 b 906 521 853 550 885 540 b 932 403 924 501 932 463 b 908 283 932 335 926 300 b 735 254 888 263 858 254 z "},"q":{"ha":1446,"x_min":0,"x_max":0,"o":"m 954 -287 l 1354 -287 b 1385 -257 1375 -287 1385 -279 b 1389 281 1388 -108 1389 125 b 1382 781 1389 444 1386 613 b 1350 811 1381 801 1372 811 l 965 811 b 932 781 944 810 933 801 l 931 769 b 881 744 925 742 906 732 b 522 829 769 808 726 829 b 122 753 258 829 172 804 b 40 403 71 701 40 597 b 121 54 40 210 69 107 b 515 -19 174 3 261 -19 b 879 40 764 -19 768 -6 b 925 10 906 50 922 38 l 925 -257 b 954 -287 925 -279 933 -287 z m 711 254 b 538 283 588 254 558 263 b 514 403 519 300 514 335 b 540 521 514 463 522 501 b 717 550 561 540 593 550 b 894 510 832 550 868 536 b 926 404 917 489 926 458 b 892 296 926 349 915 319 b 711 254 861 267 824 254 z "},"r":{"ha":1289,"x_min":0,"x_max":0,"o":"m 89 0 l 490 0 b 521 31 511 0 521 10 l 522 397 b 554 479 522 435 532 458 b 681 518 579 504 614 518 b 803 494 761 518 785 511 b 832 376 821 478 824 442 b 865 346 833 356 844 347 l 1251 346 b 1282 376 1274 346 1282 356 b 1207 764 1272 628 1258 714 b 885 829 1154 813 1097 829 b 533 743 682 829 643 821 b 486 764 510 728 492 736 l 483 781 b 450 811 481 801 471 810 l 94 811 b 63 781 74 811 64 801 b 56 404 56 667 56 532 b 58 31 56 285 56 144 b 89 0 58 8 68 0 z "},"s":{"ha":1392,"x_min":0,"x_max":0,"o":"m 708 -17 b 1301 68 1154 -17 1243 10 b 1360 265 1340 107 1360 175 b 1300 474 1360 365 1339 435 b 781 547 1244 526 1147 538 b 511 567 551 553 528 553 b 500 594 503 575 500 585 b 511 622 500 606 504 617 b 683 640 524 635 543 640 b 849 621 818 640 836 633 b 857 611 851 618 854 615 b 901 589 867 596 879 590 b 1329 589 1036 586 1204 585 b 1354 619 1350 589 1357 599 b 1294 739 1343 669 1324 713 b 697 828 1236 799 1153 828 b 99 746 258 828 154 801 b 39 564 60 707 39 643 b 93 365 39 469 56 403 b 565 290 144 314 240 303 b 883 260 844 279 867 275 b 897 224 893 250 897 239 b 886 194 897 213 894 201 b 710 175 872 181 853 175 b 558 197 594 175 574 182 b 546 213 553 201 550 207 b 506 239 539 231 526 238 b 58 240 361 242 176 243 b 32 210 38 240 29 231 b 90 72 39 153 57 106 b 708 -17 151 10 267 -17 z "},"t":{"ha":1469,"x_min":0,"x_max":0,"o":"m 835 -19 b 1369 67 1228 -19 1310 6 b 1439 347 1408 110 1426 182 b 1410 381 1440 369 1431 378 b 1047 385 1313 385 1147 386 b 1013 354 1026 385 1017 375 b 988 268 1007 303 1001 282 b 865 249 974 254 953 249 b 744 315 757 249 744 265 b 744 489 744 361 743 436 b 775 518 746 510 754 518 b 1406 517 943 518 1260 518 b 1436 547 1426 517 1436 525 l 1438 781 b 1407 811 1438 801 1428 810 l 783 811 b 753 840 763 811 754 819 l 753 958 b 722 989 753 979 744 988 l 338 989 b 304 958 317 989 307 979 l 293 840 b 261 811 292 819 282 811 l 51 811 b 21 781 31 811 22 801 l 19 547 b 50 517 19 525 29 517 l 254 518 b 282 489 275 518 283 510 b 278 238 281 394 278 301 b 835 -19 278 42 367 -18 z "},"u":{"ha":1385,"x_min":0,"x_max":0,"o":"m 1292 811 l 893 811 b 861 781 871 811 863 801 b 861 485 860 688 861 592 b 821 339 861 403 850 365 b 665 299 792 311 758 297 b 542 321 589 299 561 303 b 519 464 524 339 519 369 b 519 781 519 579 521 693 b 488 811 518 803 508 811 l 88 811 b 57 781 67 811 57 801 b 53 354 54 686 53 544 b 121 47 53 186 65 100 b 486 -18 169 0 251 -18 b 847 69 697 -18 733 -11 b 893 49 871 85 889 78 l 896 31 b 929 0 897 10 908 1 l 1289 0 b 1321 31 1310 0 1319 10 b 1328 449 1325 151 1328 313 b 1324 781 1328 568 1326 688 b 1292 811 1322 803 1313 811 z "},"ú":{"ha":1385,"x_min":0,"x_max":0,"o":"m 1292 811 l 893 811 b 861 781 871 811 863 801 b 861 485 860 688 861 592 b 821 339 861 403 850 365 b 665 299 792 311 758 297 b 542 321 589 299 561 303 b 519 464 524 339 519 369 b 519 781 519 579 521 693 b 488 811 518 803 508 811 l 88 811 b 57 781 67 811 57 801 b 53 354 54 686 53 544 b 121 47 53 186 65 100 b 486 -18 169 0 251 -18 b 847 69 697 -18 733 -11 b 893 49 871 85 889 78 l 896 31 b 929 0 897 10 908 1 l 1289 0 b 1321 31 1310 0 1319 10 b 1328 449 1325 151 1328 313 b 1324 781 1328 568 1326 688 b 1292 811 1322 803 1313 811 z m 567 879 l 697 879 b 740 903 714 879 729 888 l 883 1106 b 864 1143 900 1129 893 1143 l 685 1143 b 644 1119 665 1143 653 1135 l 542 922 b 567 879 528 894 538 879 z "},"û":{"ha":1385,"x_min":0,"x_max":0,"o":"m 1292 811 l 893 811 b 861 781 871 811 863 801 b 861 485 860 688 861 592 b 821 339 861 403 850 365 b 665 299 792 311 758 297 b 542 321 589 299 561 303 b 519 464 524 339 519 369 b 519 781 519 579 521 693 b 488 811 518 803 508 811 l 88 811 b 57 781 67 811 57 801 b 53 354 54 686 53 544 b 121 47 53 186 65 100 b 486 -18 169 0 251 -18 b 847 69 697 -18 733 -11 b 893 49 871 85 889 78 l 896 31 b 929 0 897 10 908 1 l 1289 0 b 1321 31 1310 0 1319 10 b 1328 449 1325 151 1328 313 b 1324 781 1328 568 1326 688 b 1292 811 1322 803 1313 811 z m 547 1115 l 394 917 b 413 878 376 892 383 878 l 553 878 b 599 900 571 878 586 886 l 671 985 l 742 900 b 788 878 753 886 769 878 l 924 878 b 944 917 954 878 961 893 l 801 1115 b 758 1136 792 1129 776 1136 l 592 1136 b 547 1115 575 1136 558 1129 z "},"ü":{"ha":1385,"x_min":0,"x_max":0,"o":"m 1292 811 l 893 811 b 861 781 871 811 863 801 b 861 485 860 688 861 592 b 821 339 861 403 850 365 b 665 299 792 311 758 297 b 542 321 589 299 561 303 b 519 464 524 339 519 369 b 519 781 519 579 521 693 b 488 811 518 803 508 811 l 88 811 b 57 781 67 811 57 801 b 53 354 54 686 53 544 b 121 47 53 186 65 100 b 486 -18 169 0 251 -18 b 847 69 697 -18 733 -11 b 893 49 871 85 889 78 l 896 31 b 929 0 897 10 908 1 l 1289 0 b 1321 31 1310 0 1319 10 b 1328 449 1325 151 1328 313 b 1324 781 1328 568 1326 688 b 1292 811 1322 803 1313 811 z m 732 881 l 924 881 b 954 911 944 881 954 890 l 954 1089 b 924 1119 954 1111 944 1119 l 732 1119 b 701 1089 711 1119 701 1110 l 701 911 b 732 881 701 889 711 881 z m 425 881 l 615 881 b 644 911 636 881 644 890 l 644 1089 b 615 1119 644 1111 636 1119 l 425 1119 b 396 1089 404 1119 396 1110 l 396 911 b 425 881 396 889 406 881 z "},"ù":{"ha":1385,"x_min":0,"x_max":0,"o":"m 1292 811 l 893 811 b 861 781 871 811 863 801 b 861 485 860 688 861 592 b 821 339 861 403 850 365 b 665 299 792 311 758 297 b 542 321 589 299 561 303 b 519 464 524 339 519 369 b 519 781 519 579 521 693 b 488 811 518 803 508 811 l 88 811 b 57 781 67 811 57 801 b 53 354 54 686 53 544 b 121 47 53 186 65 100 b 486 -18 169 0 251 -18 b 847 69 697 -18 733 -11 b 893 49 871 85 889 78 l 896 31 b 929 0 897 10 908 1 l 1289 0 b 1321 31 1310 0 1319 10 b 1328 449 1325 151 1328 313 b 1324 781 1328 568 1326 688 b 1292 811 1322 803 1313 811 z m 813 922 l 711 1119 b 671 1143 701 1135 689 1143 l 492 1143 b 472 1106 463 1143 456 1129 l 611 903 b 654 879 622 888 638 879 l 788 879 b 813 922 817 879 826 894 z "},"v":{"ha":1444,"x_min":0,"x_max":0,"o":"m 483 -1 b 989 -1 636 -4 846 -4 b 1032 24 1008 0 1022 8 b 1439 768 1158 233 1311 515 b 1413 811 1453 794 1443 811 b 1004 811 1289 814 1136 814 b 965 785 986 811 972 801 b 792 421 914 668 850 533 b 742 418 778 396 757 396 b 547 785 675 529 600 674 b 506 811 539 801 525 811 b 31 811 360 814 178 814 b 4 768 1 811 -8 794 b 439 24 117 546 285 251 b 483 -1 450 8 465 0 z "},"w":{"ha":2122,"x_min":0,"x_max":0,"o":"m 375 -1 b 781 -1 483 -6 671 -6 b 821 25 799 0 813 8 l 976 336 b 1022 340 989 363 1008 363 b 1200 25 1083 233 1154 110 b 1240 -1 1208 8 1222 0 b 1761 0 1383 -4 1615 -4 b 1803 25 1779 0 1793 8 b 2121 764 1901 207 2046 540 b 2088 811 2129 793 2118 811 b 1721 811 1975 814 1807 814 b 1683 783 1701 811 1689 801 b 1549 468 1654 699 1601 579 b 1504 465 1535 442 1517 442 b 1351 785 1447 578 1393 694 b 1311 811 1343 801 1329 811 b 903 811 1206 814 1015 815 b 863 785 883 811 871 801 b 711 474 833 718 772 590 b 665 474 696 449 678 449 b 528 783 613 581 560 696 b 490 813 522 801 510 811 b 38 813 369 817 169 817 b 4 765 7 811 -6 794 b 332 25 83 549 243 188 b 375 -1 342 8 356 0 z "},"ẃ":{"ha":2122,"x_min":0,"x_max":0,"o":"m 375 -1 b 781 -1 483 -6 671 -6 b 821 25 799 0 813 8 l 976 336 b 1022 340 989 363 1008 363 b 1200 25 1083 233 1154 110 b 1240 -1 1208 8 1222 0 b 1761 0 1383 -4 1615 -4 b 1803 25 1779 0 1793 8 b 2121 764 1901 207 2046 540 b 2088 811 2129 793 2118 811 b 1721 811 1975 814 1807 814 b 1683 783 1701 811 1689 801 b 1549 468 1654 699 1601 579 b 1504 465 1535 442 1517 442 b 1351 785 1447 578 1393 694 b 1311 811 1343 801 1329 811 b 903 811 1206 814 1015 815 b 863 785 883 811 871 801 b 711 474 833 718 772 590 b 665 474 696 449 678 449 b 528 783 613 581 560 696 b 490 813 522 801 510 811 b 38 813 369 817 169 817 b 4 765 7 811 -6 794 b 332 25 83 549 243 188 b 375 -1 342 8 356 0 z m 940 879 l 1071 879 b 1114 903 1088 879 1103 888 l 1257 1106 b 1238 1143 1274 1129 1267 1143 l 1058 1143 b 1018 1119 1039 1143 1026 1135 l 915 922 b 940 879 901 894 911 879 z "},"ŵ":{"ha":2122,"x_min":0,"x_max":0,"o":"m 375 -1 b 781 -1 483 -6 671 -6 b 821 25 799 0 813 8 l 976 336 b 1022 340 989 363 1008 363 b 1200 25 1083 233 1154 110 b 1240 -1 1208 8 1222 0 b 1761 0 1383 -4 1615 -4 b 1803 25 1779 0 1793 8 b 2121 764 1901 207 2046 540 b 2088 811 2129 793 2118 811 b 1721 811 1975 814 1807 814 b 1683 783 1701 811 1689 801 b 1549 468 1654 699 1601 579 b 1504 465 1535 442 1517 442 b 1351 785 1447 578 1393 694 b 1311 811 1343 801 1329 811 b 903 811 1206 814 1015 815 b 863 785 883 811 871 801 b 711 474 833 718 772 590 b 665 474 696 449 678 449 b 528 783 613 581 560 696 b 490 813 522 801 510 811 b 38 813 369 817 169 817 b 4 765 7 811 -6 794 b 332 25 83 549 243 188 b 375 -1 342 8 356 0 z m 921 1115 l 768 917 b 786 878 750 892 757 878 l 926 878 b 972 900 944 878 960 886 l 1044 985 l 1115 900 b 1161 878 1126 886 1143 878 l 1297 878 b 1318 917 1328 878 1335 893 l 1175 1115 b 1132 1136 1165 1129 1150 1136 l 965 1136 b 921 1115 949 1136 932 1129 z "},"ẅ":{"ha":2122,"x_min":0,"x_max":0,"o":"m 375 -1 b 781 -1 483 -6 671 -6 b 821 25 799 0 813 8 l 976 336 b 1022 340 989 363 1008 363 b 1200 25 1083 233 1154 110 b 1240 -1 1208 8 1222 0 b 1761 0 1383 -4 1615 -4 b 1803 25 1779 0 1793 8 b 2121 764 1901 207 2046 540 b 2088 811 2129 793 2118 811 b 1721 811 1975 814 1807 814 b 1683 783 1701 811 1689 801 b 1549 468 1654 699 1601 579 b 1504 465 1535 442 1517 442 b 1351 785 1447 578 1393 694 b 1311 811 1343 801 1329 811 b 903 811 1206 814 1015 815 b 863 785 883 811 871 801 b 711 474 833 718 772 590 b 665 474 696 449 678 449 b 528 783 613 581 560 696 b 490 813 522 801 510 811 b 38 813 369 817 169 817 b 4 765 7 811 -6 794 b 332 25 83 549 243 188 b 375 -1 342 8 356 0 z m 1106 881 l 1297 881 b 1328 911 1318 881 1328 890 l 1328 1089 b 1297 1119 1328 1111 1318 1119 l 1106 1119 b 1075 1089 1085 1119 1075 1110 l 1075 911 b 1106 881 1075 889 1085 881 z m 799 881 l 989 881 b 1018 911 1010 881 1018 890 l 1018 1089 b 989 1119 1018 1111 1010 1119 l 799 1119 b 769 1089 778 1119 769 1110 l 769 911 b 799 881 769 889 779 881 z "},"ẁ":{"ha":2122,"x_min":0,"x_max":0,"o":"m 375 -1 b 781 -1 483 -6 671 -6 b 821 25 799 0 813 8 l 976 336 b 1022 340 989 363 1008 363 b 1200 25 1083 233 1154 110 b 1240 -1 1208 8 1222 0 b 1761 0 1383 -4 1615 -4 b 1803 25 1779 0 1793 8 b 2121 764 1901 207 2046 540 b 2088 811 2129 793 2118 811 b 1721 811 1975 814 1807 814 b 1683 783 1701 811 1689 801 b 1549 468 1654 699 1601 579 b 1504 465 1535 442 1517 442 b 1351 785 1447 578 1393 694 b 1311 811 1343 801 1329 811 b 903 811 1206 814 1015 815 b 863 785 883 811 871 801 b 711 474 833 718 772 590 b 665 474 696 449 678 449 b 528 783 613 581 560 696 b 490 813 522 801 510 811 b 38 813 369 817 169 817 b 4 765 7 811 -6 794 b 332 25 83 549 243 188 b 375 -1 342 8 356 0 z m 1186 922 l 1085 1119 b 1044 1143 1075 1135 1063 1143 l 865 1143 b 846 1106 836 1143 829 1129 l 985 903 b 1028 879 996 888 1011 879 l 1161 879 b 1186 922 1190 879 1200 894 z "},"x":{"ha":1478,"x_min":0,"x_max":0,"o":"m 28 0 l 461 0 b 507 22 479 0 496 7 l 642 193 b 704 197 660 214 686 215 l 874 21 b 921 0 886 7 903 0 b 1451 0 1075 -3 1292 -3 b 1468 38 1482 0 1489 14 b 1129 401 1363 160 1218 313 b 1129 443 1115 417 1115 429 b 1428 772 1217 535 1346 669 b 1410 811 1447 797 1440 811 l 986 811 b 940 789 968 811 951 803 b 818 650 903 744 861 696 b 756 650 799 631 774 632 b 626 792 711 701 665 753 b 576 811 613 804 596 811 b 42 811 428 815 188 815 b 26 775 11 811 6 797 b 326 454 121 669 249 533 b 328 411 340 440 342 426 b 11 36 249 311 122 165 b 28 0 -8 14 -3 0 z "},"y":{"ha":1424,"x_min":0,"x_max":0,"o":"m 489 -343 b 957 -87 782 -343 839 -289 l 1060 88 b 1439 769 1179 288 1319 540 b 1413 813 1453 796 1443 813 b 1004 813 1289 815 1136 815 b 965 786 986 813 972 803 b 792 431 914 672 850 540 b 742 428 778 407 757 407 b 547 786 675 538 600 678 b 506 813 539 803 525 813 b 31 813 360 815 178 815 b 4 769 1 813 -8 796 b 439 43 117 553 285 265 b 483 19 450 28 465 21 l 539 18 l 525 -10 b 418 -56 504 -46 490 -56 b 89 -51 290 -56 165 -53 b 58 -82 68 -51 58 -61 l 58 -303 b 89 -336 58 -325 68 -335 b 489 -343 164 -340 322 -344 z "},"ý":{"ha":1424,"x_min":0,"x_max":0,"o":"m 489 -343 b 957 -87 782 -343 839 -289 l 1060 88 b 1439 769 1179 288 1319 540 b 1413 813 1453 796 1443 813 b 1004 813 1289 815 1136 815 b 965 786 986 813 972 803 b 792 431 914 672 850 540 b 742 428 778 407 757 407 b 547 786 675 538 600 678 b 506 813 539 803 525 813 b 31 813 360 815 178 815 b 4 769 1 813 -8 796 b 439 43 117 553 285 265 b 483 19 450 28 465 21 l 539 18 l 525 -10 b 418 -56 504 -46 490 -56 b 89 -51 290 -56 165 -53 b 58 -82 68 -51 58 -61 l 58 -303 b 89 -336 58 -325 68 -335 b 489 -343 164 -340 322 -344 z m 614 881 l 744 881 b 788 904 761 881 776 889 l 931 1107 b 911 1144 947 1131 940 1144 l 732 1144 b 692 1121 713 1144 700 1136 l 589 924 b 614 881 575 896 585 881 z "},"ŷ":{"ha":1424,"x_min":0,"x_max":0,"o":"m 489 -343 b 957 -87 782 -343 839 -289 l 1060 88 b 1439 769 1179 288 1319 540 b 1413 813 1453 796 1443 813 b 1004 813 1289 815 1136 815 b 965 786 986 813 972 803 b 792 431 914 672 850 540 b 742 428 778 407 757 407 b 547 786 675 538 600 678 b 506 813 539 803 525 813 b 31 813 360 815 178 815 b 4 769 1 813 -8 796 b 439 43 117 553 285 265 b 483 19 450 28 465 21 l 539 18 l 525 -10 b 418 -56 504 -46 490 -56 b 89 -51 290 -56 165 -53 b 58 -82 68 -51 58 -61 l 58 -303 b 89 -336 58 -325 68 -335 b 489 -343 164 -340 322 -344 z m 594 1117 l 442 918 b 460 879 424 893 431 879 l 600 879 b 646 901 618 879 633 888 l 718 986 l 789 901 b 835 879 800 888 817 879 l 971 879 b 992 918 1001 879 1008 894 l 849 1117 b 806 1138 839 1131 824 1138 l 639 1138 b 594 1117 622 1138 606 1131 z "},"ÿ":{"ha":1424,"x_min":0,"x_max":0,"o":"m 489 -343 b 957 -87 782 -343 839 -289 l 1060 88 b 1439 769 1179 288 1319 540 b 1413 813 1453 796 1443 813 b 1004 813 1289 815 1136 815 b 965 786 986 813 972 803 b 792 431 914 672 850 540 b 742 428 778 407 757 407 b 547 786 675 538 600 678 b 506 813 539 803 525 813 b 31 813 360 815 178 815 b 4 769 1 813 -8 796 b 439 43 117 553 285 265 b 483 19 450 28 465 21 l 539 18 l 525 -10 b 418 -56 504 -46 490 -56 b 89 -51 290 -56 165 -53 b 58 -82 68 -51 58 -61 l 58 -303 b 89 -336 58 -325 68 -335 b 489 -343 164 -340 322 -344 z m 778 882 l 969 882 b 1000 913 990 882 1000 892 l 1000 1090 b 969 1121 1000 1113 990 1121 l 778 1121 b 747 1090 757 1121 747 1111 l 747 913 b 778 882 747 890 757 882 z m 471 882 l 661 882 b 690 913 682 882 690 892 l 690 1090 b 661 1121 690 1113 682 1121 l 471 1121 b 442 1090 450 1121 442 1111 l 442 913 b 471 882 442 890 451 882 z "},"ỳ":{"ha":1424,"x_min":0,"x_max":0,"o":"m 489 -343 b 957 -87 782 -343 839 -289 l 1060 88 b 1439 769 1179 288 1319 540 b 1413 813 1453 796 1443 813 b 1004 813 1289 815 1136 815 b 965 786 986 813 972 803 b 792 431 914 672 850 540 b 742 428 778 407 757 407 b 547 786 675 538 600 678 b 506 813 539 803 525 813 b 31 813 360 815 178 815 b 4 769 1 813 -8 796 b 439 43 117 553 285 265 b 483 19 450 28 465 21 l 539 18 l 525 -10 b 418 -56 504 -46 490 -56 b 89 -51 290 -56 165 -53 b 58 -82 68 -51 58 -61 l 58 -303 b 89 -336 58 -325 68 -335 b 489 -343 164 -340 322 -344 z m 860 924 l 758 1121 b 718 1144 749 1136 736 1144 l 539 1144 b 519 1107 510 1144 503 1131 l 658 904 b 701 881 669 889 685 881 l 835 881 b 860 924 864 881 874 896 z "},"z":{"ha":1267,"x_min":0,"x_max":0,"o":"m 63 0 b 1208 0 251 -1 678 -1 b 1239 31 1229 0 1239 10 l 1239 257 b 1208 288 1239 278 1229 288 l 722 279 b 717 300 696 279 693 286 b 1197 518 832 358 1069 457 b 1224 563 1215 528 1224 542 l 1224 781 b 1193 811 1224 801 1214 810 b 64 811 818 813 400 813 b 33 781 42 811 33 801 l 33 561 b 64 531 33 539 42 531 l 504 538 b 511 514 531 538 533 529 b 60 297 408 450 192 358 b 33 253 40 288 33 274 l 32 31 b 63 0 32 8 42 0 z "}," ":{"ha":243,"x_min":0,"x_max":0,"o":""},".":{"ha":543,"x_min":0,"x_max":0,"o":"m 35 357 b 35 31 32 271 32 118 b 67 0 35 8 44 0 l 476 0 b 508 31 499 0 507 8 b 508 357 511 117 511 271 b 476 388 507 378 497 388 l 67 388 b 35 357 44 388 36 378 z "},",":{"ha":558,"x_min":0,"x_max":0,"o":"m 42 -258 l 254 -258 b 301 -237 272 -258 289 -251 l 504 -21 b 525 32 518 -6 524 11 l 525 357 b 494 388 525 379 517 388 l 72 388 b 42 357 50 388 42 378 l 42 31 b 72 0 42 10 51 0 l 221 0 b 229 -21 242 0 243 -6 l 28 -225 b 42 -258 7 -246 13 -258 z "},":":{"ha":542,"x_min":0,"x_max":0,"o":"m 47 325 b 47 28 44 247 44 108 b 79 0 47 7 57 0 l 489 0 b 521 28 511 0 519 7 b 521 325 524 107 524 247 b 489 354 519 344 510 354 l 79 354 b 47 325 57 354 49 344 z m 47 779 b 47 482 44 701 44 561 b 79 454 47 461 57 454 l 489 454 b 521 482 511 454 519 461 b 521 779 524 561 524 701 b 489 807 519 799 510 807 l 79 807 b 47 779 57 807 49 799 z "},";":{"ha":561,"x_min":0,"x_max":0,"o":"m 57 -235 l 269 -235 b 317 -215 288 -235 304 -228 l 519 -19 b 540 29 533 -6 539 10 l 540 324 b 510 351 540 343 532 351 l 88 351 b 57 324 65 351 57 343 l 57 28 b 88 0 57 8 67 0 l 236 0 b 244 -19 257 0 258 -6 l 43 -204 b 57 -235 22 -222 28 -235 z m 61 779 b 61 481 58 700 58 560 b 93 451 61 460 71 451 l 503 451 b 535 481 525 451 533 460 b 535 779 538 560 538 700 b 503 808 533 799 524 808 l 93 808 b 61 779 71 808 63 799 z "},"!":{"ha":688,"x_min":0,"x_max":0,"o":"m 574 424 l 606 747 b 608 808 607 768 608 786 l 608 983 b 578 1014 608 1006 600 1014 l 110 1014 b 79 983 88 1014 79 1004 l 79 808 b 82 747 79 786 81 768 l 114 424 b 149 393 117 403 126 393 l 539 393 b 574 424 561 393 571 403 z m 607 31 l 607 300 b 576 331 607 322 597 331 l 111 331 b 81 300 89 331 81 322 l 81 31 b 111 0 81 10 89 0 l 576 0 b 607 31 599 0 607 10 z "},"¡":{"ha":682,"x_min":0,"x_max":0,"o":"m 607 88 l 575 411 b 540 442 572 432 563 442 l 150 442 b 115 411 128 442 118 432 l 83 88 b 81 26 82 67 81 49 l 81 -149 b 111 -179 81 -169 89 -179 l 579 -179 b 610 -149 601 -179 610 -171 l 610 26 b 607 88 610 49 608 67 z m 608 535 l 608 804 b 578 835 608 825 600 835 l 113 835 b 82 804 90 835 82 825 l 82 535 b 113 504 82 513 90 504 l 578 504 b 608 535 599 504 608 513 z "},"?":{"ha":1532,"x_min":0,"x_max":0,"o":"m 482 344 l 933 344 b 967 375 954 344 964 354 l 967 368 b 981 397 968 378 971 389 b 1153 438 993 411 1017 417 b 1449 524 1342 460 1401 476 b 1515 726 1493 568 1515 635 b 1444 940 1515 829 1492 896 b 776 1032 1375 1006 1261 1032 b 94 936 292 1032 164 1003 b 1 721 51 896 24 829 b 26 690 -3 700 6 690 l 497 693 b 539 722 519 693 531 701 b 561 751 544 733 551 743 b 772 779 579 768 613 781 b 965 757 921 779 950 771 b 979 724 975 749 979 736 b 967 693 979 713 975 701 b 790 661 950 678 918 671 b 492 583 599 640 535 622 b 442 421 450 546 439 492 b 447 375 443 407 444 390 b 482 344 450 353 461 344 z m 458 0 l 956 0 b 988 31 976 0 986 10 b 988 254 989 94 989 189 b 956 285 986 275 976 285 l 458 285 b 426 254 436 285 428 275 b 426 31 425 181 425 93 b 458 0 428 8 436 0 z "},"¿":{"ha":1526,"x_min":0,"x_max":0,"o":"m 1044 490 l 593 490 b 560 460 572 490 563 481 l 560 467 b 546 438 558 457 556 446 b 374 397 533 424 510 418 b 78 311 185 375 125 358 b 11 108 33 267 11 200 b 82 -106 11 6 35 -61 b 750 -197 151 -171 265 -197 b 1432 -101 1235 -197 1363 -168 b 1525 114 1475 -61 1503 6 b 1500 144 1529 135 1521 144 l 1029 142 b 988 113 1007 142 996 133 b 965 83 982 101 975 92 b 754 56 947 67 914 54 b 561 78 606 56 576 64 b 547 111 551 86 547 99 b 560 142 547 122 551 133 b 736 174 576 157 608 164 b 1035 251 928 194 992 213 b 1085 414 1076 289 1088 343 b 1079 460 1083 428 1082 444 b 1044 490 1076 482 1065 490 z m 1068 835 l 571 835 b 539 804 550 835 540 825 b 539 581 538 740 538 646 b 571 550 540 560 550 550 l 1068 550 b 1100 581 1090 550 1099 560 b 1100 804 1101 654 1101 742 b 1068 835 1099 826 1090 835 z "},"•":{"ha":464,"x_min":0,"x_max":0,"o":"m 232 261 b 447 476 351 261 447 358 b 232 692 447 596 351 692 b 17 476 114 692 17 596 b 232 261 17 358 114 261 z "},"*":{"ha":840,"x_min":0,"x_max":0,"o":"m 313 256 l 400 396 b 447 396 415 419 432 419 l 533 258 b 574 251 544 240 557 239 l 768 392 b 771 432 785 404 786 415 l 667 544 b 679 589 647 565 653 581 l 826 632 b 844 668 847 638 853 649 l 757 876 b 718 892 749 897 738 901 l 586 826 b 551 850 561 814 549 822 l 564 992 b 536 1022 567 1013 558 1022 l 304 1022 b 276 992 283 1022 275 1013 l 290 850 b 256 826 293 822 281 814 l 122 892 b 83 878 103 901 92 897 l -4 669 b 13 633 -12 650 -7 639 l 167 586 b 179 542 193 578 197 563 l 74 431 b 76 390 58 414 60 403 l 271 249 b 313 256 289 236 301 239 z "},"/":{"ha":658,"x_min":0,"x_max":0,"o":"m 692 1075 l 432 1075 b 393 1049 414 1075 400 1065 l -104 -249 b -74 -294 -115 -278 -104 -294 l 188 -294 b 226 -268 206 -294 219 -285 l 722 1029 b 692 1075 733 1058 722 1075 z "},"\\":{"ha":658,"x_min":0,"x_max":0,"o":"m 226 1075 l -33 1075 b -64 1029 -64 1075 -75 1058 l 432 -268 b 471 -294 439 -285 453 -294 l 732 -294 b 763 -249 763 -294 774 -278 l 265 1049 b 226 1075 258 1065 244 1075 z "},"-":{"ha":763,"x_min":0,"x_max":0,"o":"m 19 600 b 19 349 15 518 15 421 b 53 318 21 328 32 319 l 711 318 b 743 349 732 318 742 328 b 743 600 746 429 746 519 b 711 631 742 622 732 631 l 53 631 b 19 600 31 631 21 622 z "},"–":{"ha":800,"x_min":0,"x_max":0,"o":"m 19 654 b 19 403 17 574 17 479 b 51 372 21 382 31 374 l 749 372 b 781 403 769 372 779 382 b 781 654 783 483 783 574 b 749 685 779 676 769 685 l 51 685 b 19 654 31 685 21 676 z "},"—":{"ha":1446,"x_min":0,"x_max":0,"o":"m 19 600 b 19 353 17 522 17 428 b 51 322 19 332 29 324 l 1394 322 b 1426 353 1417 322 1425 332 b 1426 600 1428 428 1428 522 b 1396 631 1426 621 1417 631 l 51 631 b 19 600 29 631 21 621 z "},"(":{"ha":625,"x_min":0,"x_max":0,"o":"m 271 -322 l 567 -322 b 583 -296 589 -322 593 -314 b 457 343 504 -135 457 97 b 583 986 457 589 504 821 b 567 1014 593 1006 588 1014 l 271 1014 b 225 992 251 1014 236 1007 b 36 346 103 833 36 603 b 224 -300 36 90 103 -143 b 271 -322 236 -315 251 -322 z "},")":{"ha":625,"x_min":0,"x_max":0,"o":"m 354 1014 l 58 1014 b 42 988 36 1014 32 1006 b 168 349 121 826 168 594 b 42 -294 168 103 121 -129 b 58 -322 32 -314 38 -322 l 354 -322 b 400 -300 374 -322 389 -315 b 589 346 522 -142 589 89 b 401 992 589 601 522 835 b 354 1014 389 1007 374 1014 z "},"{":{"ha":692,"x_min":0,"x_max":0,"o":"m 479 -283 l 644 -283 b 676 -253 667 -283 675 -274 l 676 -33 b 646 -3 676 -11 667 -3 l 639 -3 b 554 104 579 -3 554 28 l 554 142 b 457 353 554 272 515 315 b 456 406 433 368 433 389 b 554 607 517 450 554 500 l 554 626 b 638 738 554 690 575 738 l 644 738 b 675 768 667 738 675 746 l 675 986 b 644 1017 675 1008 667 1017 l 479 1017 b 104 731 200 1017 104 910 l 104 675 b 44 526 104 614 97 558 b 17 482 25 517 17 503 l 17 285 b 44 242 17 264 25 250 b 104 82 101 208 104 153 l 104 -11 b 479 -283 104 -201 219 -283 z "},"}":{"ha":692,"x_min":0,"x_max":0,"o":"m 47 -283 l 213 -283 b 588 -11 472 -283 588 -201 l 588 82 b 647 242 588 153 590 208 b 675 285 667 250 675 264 l 675 482 b 647 526 675 503 667 517 b 588 675 594 558 588 614 l 588 731 b 213 1017 588 910 492 1017 l 47 1017 b 17 986 25 1017 17 1008 l 17 768 b 47 738 17 746 25 738 l 54 738 b 138 626 117 738 138 690 l 138 607 b 236 406 138 500 175 450 b 235 353 258 389 258 368 b 138 142 176 315 138 272 l 138 104 b 53 -3 138 28 113 -3 l 46 -3 b 15 -33 25 -3 15 -11 l 15 -253 b 47 -283 17 -274 25 -283 z "},"[":{"ha":535,"x_min":0,"x_max":0,"o":"m 496 -208 l 496 -31 b 465 0 496 -10 486 0 l 400 0 b 371 29 381 0 371 8 l 371 744 b 400 774 371 764 381 774 l 464 774 b 494 804 486 774 494 782 l 494 983 b 464 1014 494 1006 485 1014 l 110 1014 b 79 983 88 1014 79 1004 l 79 -208 b 110 -239 79 -231 89 -239 l 465 -239 b 496 -208 486 -239 494 -231 z "},"]":{"ha":522,"x_min":0,"x_max":0,"o":"m 26 -31 l 26 -208 b 57 -239 28 -231 36 -239 l 413 -239 b 443 -208 433 -239 443 -231 l 443 983 b 413 1014 443 1004 435 1014 l 58 1014 b 28 983 38 1014 28 1006 l 28 804 b 58 774 28 782 36 774 l 122 774 b 151 744 142 774 151 764 l 151 29 b 122 0 151 8 142 0 l 57 0 b 26 -31 36 0 26 -10 z "},"“":{"ha":1088,"x_min":0,"x_max":0,"o":"m 506 1014 l 293 1014 b 246 993 275 1014 258 1007 l 43 776 b 22 724 29 761 24 744 l 22 399 b 53 368 22 376 31 368 l 475 368 b 506 399 497 368 506 378 l 506 725 b 475 756 506 746 496 756 l 326 756 b 318 776 306 756 304 761 l 519 981 b 506 1014 540 1001 535 1014 z m 1046 1014 l 833 1014 b 786 993 815 1014 799 1007 l 583 776 b 563 724 569 761 564 744 l 563 399 b 593 368 563 376 571 368 l 1015 368 b 1046 399 1038 368 1046 378 l 1046 725 b 1015 756 1046 746 1036 756 l 867 756 b 858 776 846 756 844 761 l 1060 981 b 1046 1014 1081 1001 1075 1014 z "},"”":{"ha":1074,"x_min":0,"x_max":0,"o":"m 569 369 l 782 369 b 829 390 800 369 817 376 l 1032 607 b 1053 660 1046 622 1051 639 l 1053 985 b 1022 1015 1053 1007 1044 1015 l 600 1015 b 569 985 578 1015 569 1006 l 569 658 b 600 628 569 638 579 628 l 749 628 b 757 607 769 628 771 622 l 556 403 b 569 369 535 382 540 369 z m 31 369 l 243 369 b 290 390 261 369 278 376 l 493 607 b 514 660 507 622 513 639 l 514 985 b 483 1015 514 1007 506 1015 l 61 1015 b 31 985 39 1015 31 1006 l 31 658 b 61 628 31 638 40 628 l 210 628 b 218 607 231 628 232 622 l 17 403 b 31 369 -4 382 1 369 z "},"‘":{"ha":547,"x_min":0,"x_max":0,"o":"m 506 1014 l 293 1014 b 246 993 275 1014 258 1007 l 43 776 b 22 724 29 761 24 744 l 22 399 b 53 368 22 376 31 368 l 475 368 b 506 399 497 368 506 378 l 506 725 b 475 756 506 746 496 756 l 326 756 b 318 776 306 756 304 761 l 519 981 b 506 1014 540 1001 535 1014 z "},"’":{"ha":547,"x_min":0,"x_max":0,"o":"m 42 368 l 254 368 b 301 389 272 368 289 375 l 504 606 b 525 658 518 621 524 638 l 525 983 b 494 1014 525 1006 517 1014 l 72 1014 b 42 983 50 1014 42 1004 l 42 657 b 72 626 42 636 51 626 l 221 626 b 229 606 242 626 243 621 l 28 401 b 42 368 7 381 13 368 z "},"\"":{"ha":719,"x_min":0,"x_max":0,"o":"m 310 1014 l 58 1014 b 28 983 38 1014 28 1004 l 28 836 b 31 775 28 814 29 796 l 54 558 b 88 528 57 538 65 528 l 276 528 b 310 558 297 528 307 538 l 335 775 b 339 836 338 796 338 814 l 339 983 b 310 1014 339 1006 329 1014 z m 668 1014 l 417 1014 b 386 983 396 1014 386 1004 l 386 836 b 389 775 386 814 388 796 l 413 558 b 446 528 415 538 425 528 l 636 528 b 668 558 656 528 665 538 l 693 775 b 697 836 696 796 696 814 l 697 983 b 668 1014 697 1006 689 1014 z "},"'":{"ha":372,"x_min":0,"x_max":0,"o":"m 318 1014 l 58 1014 b 28 983 38 1014 28 1004 l 28 836 b 31 775 28 814 29 796 l 54 558 b 89 528 57 538 67 528 l 285 528 b 318 558 306 528 315 538 l 344 775 b 349 836 347 796 347 814 l 349 983 b 318 1014 349 1006 339 1014 z "},"@":{"ha":1867,"x_min":0,"x_max":0,"o":"m 932 -192 b 1588 -153 1288 -192 1464 -175 b 1596 -133 1593 -151 1596 -146 l 1596 -83 b 1575 -67 1596 -71 1589 -64 b 932 -106 1468 -86 1304 -106 b 243 0 393 -106 307 -64 b 138 426 179 64 138 163 b 244 846 138 681 182 783 b 940 949 308 910 396 949 b 1635 847 1471 949 1568 914 b 1729 425 1694 788 1729 675 b 1626 132 1729 186 1697 132 b 1564 200 1582 132 1564 149 l 1565 431 b 1561 797 1565 569 1564 701 b 1529 828 1560 819 1550 828 l 1147 828 b 1113 797 1126 828 1115 819 l 1110 775 b 1063 753 1106 747 1088 739 b 722 846 974 815 950 846 b 336 771 475 846 386 819 b 251 422 283 719 251 614 b 336 69 251 222 286 118 b 713 -3 388 19 464 -3 b 1044 53 919 -3 964 8 b 1124 92 1086 75 1103 92 b 1163 64 1142 92 1150 79 b 1468 -4 1206 17 1254 -4 b 1822 425 1732 -4 1822 46 b 1703 910 1822 700 1778 832 b 938 1032 1625 988 1499 1032 b 178 907 367 1032 253 983 b 44 426 99 828 44 704 b 175 -67 44 140 96 18 b 932 -192 247 -142 364 -192 z m 904 272 b 743 300 790 272 763 281 b 717 422 725 317 717 357 b 746 539 717 478 726 519 b 908 567 765 558 796 567 b 1071 529 1014 567 1047 554 b 1108 421 1097 506 1108 472 b 1072 313 1108 371 1096 335 b 904 272 1044 288 1013 272 z "},"&":{"ha":1590,"x_min":0,"x_max":0,"o":"m 644 -17 b 1028 47 956 -18 939 -1 b 1097 38 1053 60 1078 56 l 1117 19 b 1165 0 1131 7 1147 0 l 1556 0 b 1575 38 1586 0 1593 14 l 1439 210 l 1546 542 b 1513 588 1556 569 1543 588 l 1076 590 b 1039 563 1057 590 1044 581 l 1010 475 l 663 681 b 631 726 642 694 631 708 b 642 758 631 738 632 749 b 788 776 654 769 676 776 b 964 749 922 776 947 767 b 988 713 974 738 981 726 b 1031 685 996 692 1010 685 l 1485 685 b 1510 715 1507 685 1514 694 b 1422 928 1490 815 1460 889 b 786 1033 1351 999 1257 1033 b 157 943 329 1033 229 1014 b 97 771 115 903 97 833 b 175 596 97 703 122 650 b 171 542 194 576 193 557 b 31 288 64 465 31 413 b 93 71 31 197 44 119 b 644 -17 158 6 253 -14 z m 701 242 b 568 265 606 242 585 250 b 551 315 557 278 551 294 b 568 372 551 339 556 358 b 615 374 582 386 596 385 l 771 299 b 775 256 796 286 797 271 b 701 242 756 246 732 242 z "},"©":{"ha":1753,"x_min":0,"x_max":0,"o":"m 878 -35 b 1578 79 1393 -35 1503 4 b 1704 510 1654 158 1704 301 b 1578 939 1704 718 1656 860 b 878 1054 1503 1014 1393 1054 b 176 939 361 1054 251 1014 b 49 510 99 860 49 717 b 176 79 49 303 99 160 b 878 -35 251 4 361 -35 z m 878 29 b 229 128 383 29 293 64 b 121 510 165 192 121 318 b 229 892 121 701 164 826 b 878 989 293 956 382 989 b 1525 892 1371 989 1461 956 b 1632 510 1589 828 1632 701 b 1525 128 1632 318 1589 192 b 878 29 1461 64 1371 29 z m 854 132 b 1413 213 1256 132 1349 151 b 1486 435 1453 251 1474 319 b 1460 464 1488 454 1479 463 b 1082 471 1343 471 1206 472 b 1049 443 1063 469 1053 463 b 1025 390 1044 417 1036 401 b 860 367 1010 375 982 367 b 700 392 750 367 718 375 b 674 504 683 407 674 440 b 703 633 672 569 685 615 b 860 657 719 649 750 657 b 1021 633 985 657 1006 647 b 1047 588 1033 622 1040 608 b 1082 560 1051 568 1063 560 b 1460 561 1193 558 1342 558 b 1486 589 1479 561 1488 569 b 1408 813 1478 683 1451 771 b 854 888 1347 869 1256 888 b 325 813 479 888 383 868 b 242 508 271 761 242 657 b 321 213 242 360 265 265 b 854 132 382 153 475 132 z "},"®":{"ha":704,"x_min":0,"x_max":0,"o":"m 353 563 b 646 614 567 563 613 581 b 694 797 674 643 694 700 b 644 982 694 896 672 953 b 353 1033 611 1015 565 1033 b 60 982 142 1033 92 1015 b 8 797 31 953 8 896 b 60 614 8 700 31 643 b 353 563 92 581 142 563 z m 353 621 b 111 656 165 621 133 633 b 76 797 90 676 76 722 b 111 940 76 874 90 918 b 353 975 135 963 165 975 b 592 940 539 975 568 963 b 626 797 613 919 626 874 b 593 656 626 722 614 676 b 353 621 569 633 539 621 z m 161 660 l 286 660 b 300 674 296 660 300 664 b 300 726 300 692 299 704 l 376 726 b 403 719 390 726 399 725 b 408 700 407 715 408 708 l 408 676 b 424 660 408 665 411 660 l 551 660 b 565 674 561 660 565 665 l 565 713 b 551 763 565 736 561 751 b 538 781 543 772 538 774 b 556 803 538 788 544 793 b 572 853 565 813 572 828 b 554 913 572 882 567 900 b 433 936 538 929 511 936 l 161 936 b 146 924 150 936 146 933 b 146 672 144 851 144 736 b 161 660 146 663 151 660 z m 376 803 l 297 803 b 299 860 297 819 297 846 l 375 860 b 407 854 394 860 401 858 b 414 832 411 849 414 843 b 407 810 414 821 411 814 b 376 803 401 806 394 803 z "},"™":{"ha":956,"x_min":0,"x_max":0,"o":"m 154 733 l 279 733 b 290 742 286 733 290 735 l 289 922 l 410 919 b 422 929 417 919 422 921 l 418 1007 b 406 1014 418 1013 411 1014 l 21 1014 b 8 1006 15 1014 8 1014 l 4 929 b 17 921 4 922 8 921 l 143 922 l 142 742 b 154 733 142 735 146 733 z m 457 733 l 542 733 b 553 743 549 733 553 735 l 551 854 b 557 861 551 860 554 861 b 564 854 561 861 563 858 l 617 742 b 631 733 621 735 622 733 l 710 733 b 722 742 717 733 719 736 l 774 856 b 782 863 776 861 778 863 b 788 856 785 863 788 861 l 788 742 b 797 733 788 736 792 733 l 919 733 b 929 743 926 733 929 735 b 929 1003 932 818 931 933 b 918 1014 929 1011 925 1014 l 769 1014 b 757 1004 763 1014 760 1011 b 707 882 743 964 724 924 b 699 875 704 878 703 875 b 692 882 696 875 694 878 b 646 1003 667 939 661 963 b 632 1014 642 1011 639 1014 l 458 1014 b 447 1003 451 1014 449 1011 b 447 743 444 932 444 814 b 457 733 449 735 451 733 z "},"$":{"ha":1546,"x_min":0,"x_max":0,"o":"m 704 -92 l 876 -92 b 907 -61 899 -92 907 -82 l 906 -1 b 1453 96 1288 4 1392 36 b 1522 328 1497 139 1522 211 b 1454 578 1522 447 1506 526 b 940 676 1393 639 1324 658 b 593 710 649 688 613 690 b 578 747 582 719 578 732 b 593 782 578 761 582 772 b 801 804 610 797 639 804 b 986 778 943 804 972 793 b 1004 751 994 771 1000 763 b 1046 722 1013 731 1025 724 l 1496 722 b 1521 753 1517 722 1524 732 b 1444 933 1508 835 1483 896 b 913 1024 1388 989 1294 1019 l 914 1083 b 883 1114 914 1104 904 1114 l 711 1114 b 682 1083 690 1114 682 1104 l 682 1025 b 121 932 276 1021 181 992 b 49 708 74 886 49 807 b 108 483 49 603 65 528 b 593 378 165 422 250 396 b 976 336 922 360 956 356 b 993 288 989 324 993 306 b 979 243 993 269 990 254 b 774 222 965 231 933 222 b 597 247 643 222 613 233 b 572 294 586 258 578 274 b 533 324 565 314 554 322 l 64 325 b 38 296 42 325 35 315 b 117 96 51 199 75 138 b 675 0 179 33 289 4 l 674 -61 b 704 -92 674 -83 682 -92 z "},"¥":{"ha":1638,"x_min":0,"x_max":0,"o":"m 57 628 b 58 457 56 574 56 508 b 90 426 60 436 69 426 l 586 426 l 658 357 l 90 357 b 57 326 68 357 58 347 b 58 156 56 272 56 207 b 90 125 60 135 69 125 l 682 125 l 683 31 b 714 0 683 10 692 0 b 1213 0 844 -4 1083 -4 b 1243 31 1233 0 1243 10 l 1242 125 l 1561 125 b 1593 156 1582 125 1592 135 b 1593 326 1596 208 1596 272 b 1561 357 1592 347 1582 357 l 1247 357 l 1253 364 l 1315 426 l 1561 426 b 1593 457 1582 426 1592 436 b 1593 628 1596 510 1596 574 b 1560 658 1592 649 1582 658 l 1540 658 b 1825 976 1651 775 1754 889 b 1807 1015 1844 1000 1838 1014 b 1339 1015 1672 1017 1457 1017 b 1292 994 1321 1014 1304 1007 b 1035 747 1217 919 1113 819 b 972 747 1015 731 989 732 b 706 994 899 817 785 918 b 657 1015 693 1007 676 1014 b 65 1015 496 1018 268 1018 b 50 978 35 1014 29 1001 b 353 658 132 885 242 771 l 90 658 b 57 628 68 658 58 649 z "},"+":{"ha":1113,"x_min":0,"x_max":0,"o":"m 18 651 b 18 414 15 575 15 488 b 50 383 18 393 28 383 l 382 383 l 382 126 b 413 94 382 104 390 96 b 696 94 499 93 604 93 b 726 126 718 96 726 104 l 726 383 l 1064 383 b 1094 414 1085 383 1094 393 b 1096 651 1097 488 1097 574 b 1064 682 1094 672 1085 682 l 728 682 l 728 931 b 697 961 728 951 718 961 b 413 961 606 964 500 964 b 382 931 390 961 382 951 l 382 682 l 50 682 b 18 651 28 682 19 672 z "},"%":{"ha":2015,"x_min":0,"x_max":0,"o":"m 465 533 b 861 596 743 533 822 561 b 915 785 893 626 915 682 b 860 971 915 882 893 942 b 463 1033 817 1007 743 1033 b 68 971 188 1033 110 1007 b 11 781 33 939 11 881 b 67 596 11 683 33 626 b 465 533 110 558 189 532 z m 464 710 b 368 724 396 710 378 715 b 350 782 357 733 350 751 b 368 843 350 814 357 833 b 463 857 378 851 396 857 b 560 843 531 857 549 851 b 576 782 571 833 576 814 b 560 724 576 751 569 733 b 464 710 550 715 531 710 z m 1711 1014 l 1458 1014 b 1410 996 1440 1014 1424 1008 l 299 32 b 311 0 276 13 281 0 l 565 0 b 614 18 583 0 600 7 l 1724 982 b 1711 1014 1746 1003 1742 1014 z m 1554 -28 b 1950 35 1832 -28 1911 0 b 2004 224 1982 65 2004 121 b 1949 410 2004 321 1982 381 b 1551 472 1906 446 1832 472 b 1157 410 1276 472 1199 446 b 1100 219 1122 378 1100 319 b 1156 35 1100 122 1122 65 b 1554 -28 1199 -3 1278 -29 z m 1553 149 b 1457 163 1485 149 1467 154 b 1439 221 1446 172 1439 190 b 1457 282 1439 253 1446 272 b 1551 296 1467 290 1485 296 b 1649 282 1619 296 1638 290 b 1665 221 1660 272 1665 253 b 1649 163 1665 190 1658 172 b 1553 149 1639 154 1619 149 z "},"̈":{"ha":0,"x_min":0,"x_max":0,"o":"m 356 907 l 553 907 b 583 938 574 907 583 917 l 583 1121 b 553 1151 583 1143 574 1151 l 356 1151 b 325 1121 335 1151 325 1142 l 325 938 b 356 907 325 915 335 907 z m 42 907 l 236 907 b 267 938 258 907 267 917 l 267 1121 b 236 1151 267 1143 258 1151 l 42 1151 b 11 1121 19 1151 11 1142 l 11 938 b 42 907 11 915 21 907 z "},"̇":{"ha":0,"x_min":0,"x_max":0,"o":"m 232 1157 l 33 1157 b 3 1126 13 1157 3 1147 l 3 938 b 33 907 3 915 13 907 l 232 907 b 263 938 254 907 263 915 l 263 1126 b 232 1157 263 1147 254 1156 z "},"̀":{"ha":0,"x_min":0,"x_max":0,"o":"m 368 949 l 264 1151 b 222 1176 254 1168 240 1176 l 39 1176 b 18 1138 8 1176 1 1163 l 161 929 b 206 906 172 914 188 906 l 342 906 b 368 949 372 906 382 921 z "},"́":{"ha":0,"x_min":0,"x_max":0,"o":"m 44 906 l 178 906 b 222 929 196 906 211 914 l 369 1138 b 349 1176 386 1163 379 1176 l 165 1176 b 124 1151 146 1176 132 1168 l 18 949 b 44 906 4 921 14 906 z "},"̋":{"ha":0,"x_min":0,"x_max":0,"o":"m 49 903 l 176 903 b 219 928 196 903 210 911 l 343 1133 b 321 1175 360 1160 350 1175 l 144 1175 b 104 1149 125 1175 113 1165 l 19 947 b 49 903 7 919 18 903 z m 328 903 l 458 903 b 503 926 476 903 492 911 l 650 1135 b 629 1175 667 1160 660 1175 l 447 1175 b 406 1150 428 1175 414 1165 l 301 946 b 328 903 288 919 297 903 z "},"̂":{"ha":0,"x_min":0,"x_max":0,"o":"m 167 1147 l 10 943 b 29 904 -8 918 -1 904 l 172 904 b 219 926 190 904 207 913 l 293 1014 l 367 926 b 413 904 378 913 394 904 l 553 904 b 574 943 583 904 592 919 l 428 1147 b 383 1169 417 1163 401 1169 l 213 1169 b 167 1147 194 1169 178 1163 z "},"̌":{"ha":0,"x_min":0,"x_max":0,"o":"m 15 1132 l 172 928 b 218 906 183 913 200 906 l 389 906 b 433 928 407 906 422 913 l 579 1132 b 558 1171 597 1156 589 1171 l 418 1171 b 372 1149 400 1171 383 1163 l 299 1061 l 225 1149 b 178 1171 213 1163 196 1171 l 35 1171 b 15 1132 4 1171 -3 1157 z "},"̆":{"ha":0,"x_min":0,"x_max":0,"o":"m 289 897 b 567 1103 438 897 544 983 b 540 1133 569 1125 561 1133 l 379 1133 b 344 1103 357 1133 347 1124 b 289 1061 336 1076 317 1061 b 233 1103 261 1061 242 1075 b 199 1133 231 1125 219 1133 l 36 1133 b 10 1103 15 1133 7 1125 b 289 897 31 985 132 897 z "},"̊":{"ha":0,"x_min":0,"x_max":0,"o":"m 225 886 b 439 1083 344 886 439 969 b 225 1279 439 1196 344 1279 b 11 1083 104 1279 11 1196 b 225 886 11 969 104 886 z m 225 1024 b 165 1083 190 1024 165 1050 b 225 1142 165 1117 190 1142 b 283 1083 260 1142 283 1117 b 225 1024 283 1050 260 1024 z "},"̃":{"ha":0,"x_min":0,"x_max":0,"o":"m 432 894 b 550 935 481 894 518 907 b 569 982 563 947 569 964 l 569 1107 b 535 1122 569 1138 557 1143 b 436 1093 506 1101 475 1093 b 304 1122 390 1093 350 1107 b 149 1157 257 1139 207 1157 b 26 1115 100 1157 60 1143 b 7 1067 14 1103 7 1086 l 7 944 b 43 928 7 914 19 908 b 142 957 74 950 104 957 b 272 929 188 957 228 944 b 432 894 322 913 372 894 z "},"̄":{"ha":0,"x_min":0,"x_max":0,"o":"m 519 1125 l 33 1125 b 3 1094 11 1125 3 1115 l 3 958 b 33 928 3 936 13 928 l 519 928 b 550 958 540 928 549 936 l 550 1094 b 519 1125 550 1115 540 1125 z "},"̒":{"ha":0,"x_min":0,"x_max":0,"o":"m 246 1288 l 163 1288 b 118 1265 144 1288 128 1281 l 24 1138 b 6 1082 11 1119 6 1104 l 6 926 b 36 896 6 904 14 896 l 243 896 b 274 926 264 896 274 906 l 274 1097 b 243 1128 274 1119 264 1128 l 171 1128 l 265 1250 b 246 1288 283 1274 276 1288 z "},"̦":{"ha":0,"x_min":0,"x_max":0,"o":"m 43 -447 l 126 -447 b 171 -425 144 -447 161 -440 l 265 -297 b 283 -242 278 -279 283 -264 l 283 -86 b 253 -56 283 -64 275 -56 l 46 -56 b 15 -86 25 -56 15 -65 l 15 -257 b 46 -287 15 -279 25 -287 l 118 -287 l 24 -410 b 43 -447 6 -433 13 -447 z "},"̧":{"ha":0,"x_min":0,"x_max":0,"o":"m 288 15 l 153 15 b 113 -11 135 15 121 6 l 18 -203 b 44 -246 4 -231 14 -246 l 221 -246 b 257 -219 239 -246 251 -236 l 321 -31 b 288 15 331 -1 318 15 z "},"̨":{"ha":0,"x_min":0,"x_max":0,"o":"m 207 -281 l 269 -281 b 300 -250 290 -281 299 -271 l 299 -135 b 268 -103 299 -114 289 -104 l 243 -100 b 208 -74 218 -99 208 -92 b 261 0 208 -50 222 -32 l 225 60 b -4 -129 89 24 -4 -22 b 207 -281 -4 -233 85 -281 z "},"̵":{"ha":0,"x_min":0,"x_max":0,"o":"m 42 318 l 736 318 b 767 349 757 318 765 328 l 767 508 b 736 539 767 531 757 539 l 42 539 b 11 508 19 539 11 529 l 11 349 b 42 318 11 326 21 318 z "},"̷":{"ha":0,"x_min":0,"x_max":0,"o":"m -7 374 l -7 231 b 31 213 -7 201 7 194 l 440 529 b 463 575 456 542 463 557 l 463 717 b 425 736 463 747 449 754 l 15 419 b -7 374 1 407 -7 392 z "},"̸":{"ha":0,"x_min":0,"x_max":0,"o":"m 710 1121 l 613 1121 b 571 1097 594 1121 579 1113 l -147 -126 b -124 -168 -162 -153 -154 -168 l -24 -168 b 18 -143 -6 -168 10 -160 l 733 1079 b 710 1121 749 1106 740 1121 z "},"¨":{"ha":590,"x_min":0,"x_max":0,"o":"m 356 907 l 553 907 b 583 938 574 907 583 917 l 583 1121 b 553 1151 583 1143 574 1151 l 356 1151 b 325 1121 335 1151 325 1142 l 325 938 b 356 907 325 915 335 907 z m 42 907 l 236 907 b 267 938 258 907 267 917 l 267 1121 b 236 1151 267 1143 258 1151 l 42 1151 b 11 1121 19 1151 11 1142 l 11 938 b 42 907 11 915 21 907 z "},"˙":{"ha":264,"x_min":0,"x_max":0,"o":"m 232 1157 l 33 1157 b 3 1126 13 1157 3 1147 l 3 938 b 33 907 3 915 13 907 l 232 907 b 263 938 254 907 263 915 l 263 1126 b 232 1157 263 1147 254 1156 z "},"`":{"ha":386,"x_min":0,"x_max":0,"o":"m 368 949 l 264 1151 b 222 1176 254 1168 240 1176 l 39 1176 b 18 1138 8 1176 1 1163 l 161 929 b 206 906 172 914 188 906 l 342 906 b 368 949 372 906 382 921 z "},"´":{"ha":382,"x_min":0,"x_max":0,"o":"m 44 906 l 178 906 b 222 929 196 906 211 914 l 369 1138 b 349 1176 386 1163 379 1176 l 165 1176 b 124 1151 146 1176 132 1168 l 18 949 b 44 906 4 921 14 906 z "},"˝":{"ha":667,"x_min":0,"x_max":0,"o":"m 49 903 l 176 903 b 219 928 196 903 210 911 l 343 1133 b 321 1175 360 1160 350 1175 l 144 1175 b 104 1149 125 1175 113 1165 l 19 947 b 49 903 7 919 18 903 z m 328 903 l 458 903 b 503 926 476 903 492 911 l 650 1135 b 629 1175 667 1160 660 1175 l 447 1175 b 406 1150 428 1175 414 1165 l 301 946 b 328 903 288 919 297 903 z "},"ˆ":{"ha":581,"x_min":0,"x_max":0,"o":"m 167 1147 l 10 943 b 29 904 -8 918 -1 904 l 172 904 b 219 926 190 904 207 913 l 293 1014 l 367 926 b 413 904 378 913 394 904 l 553 904 b 574 943 583 904 592 919 l 428 1147 b 383 1169 417 1163 401 1169 l 213 1169 b 167 1147 194 1169 178 1163 z "},"ˇ":{"ha":592,"x_min":0,"x_max":0,"o":"m 15 1132 l 172 928 b 218 906 183 913 200 906 l 389 906 b 433 928 407 906 422 913 l 579 1132 b 558 1171 597 1156 589 1171 l 418 1171 b 372 1149 400 1171 383 1163 l 299 1061 l 225 1149 b 178 1171 213 1163 196 1171 l 35 1171 b 15 1132 4 1171 -3 1157 z "},"˘":{"ha":575,"x_min":0,"x_max":0,"o":"m 289 897 b 567 1103 438 897 544 983 b 540 1133 569 1125 561 1133 l 379 1133 b 344 1103 357 1133 347 1124 b 289 1061 336 1076 317 1061 b 233 1103 261 1061 242 1075 b 199 1133 231 1125 219 1133 l 36 1133 b 10 1103 15 1133 7 1125 b 289 897 31 985 132 897 z "},"˚":{"ha":446,"x_min":0,"x_max":0,"o":"m 225 886 b 439 1083 344 886 439 969 b 225 1279 439 1196 344 1279 b 11 1083 104 1279 11 1196 b 225 886 11 969 104 886 z m 225 1024 b 165 1083 190 1024 165 1050 b 225 1142 165 1117 190 1142 b 283 1083 260 1142 283 1117 b 225 1024 283 1050 260 1024 z "},"˜":{"ha":581,"x_min":0,"x_max":0,"o":"m 432 894 b 550 935 481 894 518 907 b 569 982 563 947 569 964 l 569 1107 b 535 1122 569 1138 557 1143 b 436 1093 506 1101 475 1093 b 304 1122 390 1093 350 1107 b 149 1157 257 1139 207 1157 b 26 1115 100 1157 60 1143 b 7 1067 14 1103 7 1086 l 7 944 b 43 928 7 914 19 908 b 142 957 74 950 104 957 b 272 929 188 957 228 944 b 432 894 322 913 372 894 z "},"¯":{"ha":543,"x_min":0,"x_max":0,"o":"m 519 1125 l 33 1125 b 3 1094 11 1125 3 1115 l 3 958 b 33 928 3 936 13 928 l 519 928 b 550 958 540 928 549 936 l 550 1094 b 519 1125 550 1115 540 1125 z "},"¸":{"ha":336,"x_min":0,"x_max":0,"o":"m 288 15 l 153 15 b 113 -11 135 15 121 6 l 18 -203 b 44 -246 4 -231 14 -246 l 221 -246 b 257 -219 239 -246 251 -236 l 321 -31 b 288 15 331 -1 318 15 z "},"˛":{"ha":299,"x_min":0,"x_max":0,"o":"m 207 -281 l 269 -281 b 300 -250 290 -281 299 -271 l 299 -135 b 268 -103 299 -114 289 -104 l 243 -100 b 208 -74 218 -99 208 -92 b 261 0 208 -50 222 -32 l 225 60 b -4 -129 89 24 -4 -22 b 207 -281 -4 -233 85 -281 z "},"⁄":{"ha":182,"x_min":0,"x_max":0,"o":"m 794 1014 l 542 1014 b 493 996 524 1014 507 1008 l -618 32 b -606 0 -640 13 -636 0 l -351 0 b -303 18 -333 0 -317 7 l 807 982 b 794 1014 829 1003 825 1014 z "}}}
